%TF.GenerationSoftware,KiCad,Pcbnew,7.0.5*%
%TF.CreationDate,2023-11-23T16:42:45+08:00*%
%TF.ProjectId,0.87OLED_DevBoard,302e3837-4f4c-4454-945f-446576426f61,rev?*%
%TF.SameCoordinates,Original*%
%TF.FileFunction,Soldermask,Bot*%
%TF.FilePolarity,Negative*%
%FSLAX46Y46*%
G04 Gerber Fmt 4.6, Leading zero omitted, Abs format (unit mm)*
G04 Created by KiCad (PCBNEW 7.0.5) date 2023-11-23 16:42:45*
%MOMM*%
%LPD*%
G01*
G04 APERTURE LIST*
G04 Aperture macros list*
%AMRoundRect*
0 Rectangle with rounded corners*
0 $1 Rounding radius*
0 $2 $3 $4 $5 $6 $7 $8 $9 X,Y pos of 4 corners*
0 Add a 4 corners polygon primitive as box body*
4,1,4,$2,$3,$4,$5,$6,$7,$8,$9,$2,$3,0*
0 Add four circle primitives for the rounded corners*
1,1,$1+$1,$2,$3*
1,1,$1+$1,$4,$5*
1,1,$1+$1,$6,$7*
1,1,$1+$1,$8,$9*
0 Add four rect primitives between the rounded corners*
20,1,$1+$1,$2,$3,$4,$5,0*
20,1,$1+$1,$4,$5,$6,$7,0*
20,1,$1+$1,$6,$7,$8,$9,0*
20,1,$1+$1,$8,$9,$2,$3,0*%
G04 Aperture macros list end*
%ADD10C,0.150000*%
%ADD11C,0.200000*%
%ADD12RoundRect,0.200000X-0.200000X-0.275000X0.200000X-0.275000X0.200000X0.275000X-0.200000X0.275000X0*%
%ADD13RoundRect,0.200000X0.200000X0.275000X-0.200000X0.275000X-0.200000X-0.275000X0.200000X-0.275000X0*%
%ADD14R,1.700000X1.700000*%
%ADD15O,1.700000X1.700000*%
%ADD16R,1.100000X0.600000*%
%ADD17RoundRect,0.225000X0.225000X0.250000X-0.225000X0.250000X-0.225000X-0.250000X0.225000X-0.250000X0*%
%ADD18RoundRect,0.225000X-0.225000X-0.250000X0.225000X-0.250000X0.225000X0.250000X-0.225000X0.250000X0*%
G04 APERTURE END LIST*
D10*
G36*
X69788317Y-58769078D02*
G01*
X69818722Y-58799483D01*
X69857216Y-58876469D01*
X69900600Y-59050004D01*
X69900600Y-59269632D01*
X69857216Y-59443164D01*
X69818722Y-59520153D01*
X69788314Y-59550561D01*
X69719800Y-59584819D01*
X69659973Y-59584819D01*
X69591455Y-59550560D01*
X69561047Y-59520151D01*
X69522555Y-59443166D01*
X69479172Y-59269632D01*
X69479172Y-59050005D01*
X69522555Y-58876472D01*
X69561050Y-58799483D01*
X69591455Y-58769077D01*
X69659971Y-58734819D01*
X69719799Y-58734819D01*
X69788317Y-58769078D01*
G37*
G36*
X71269706Y-59356580D02*
G01*
X71276250Y-59353866D01*
X71481704Y-59353866D01*
X71538746Y-59382387D01*
X71567267Y-59439427D01*
X71567267Y-59499255D01*
X71538745Y-59556298D01*
X71481705Y-59584819D01*
X71279021Y-59584819D01*
X71241077Y-59565847D01*
X71241077Y-59353866D01*
X71254623Y-59353866D01*
X71269706Y-59356580D01*
G37*
G36*
X72967318Y-59096673D02*
G01*
X72995839Y-59153713D01*
X72995839Y-59234999D01*
X72669649Y-59169761D01*
X72669649Y-59153715D01*
X72698170Y-59096672D01*
X72755210Y-59068152D01*
X72910276Y-59068152D01*
X72967318Y-59096673D01*
G37*
G36*
X73948220Y-59584819D02*
G01*
X73659974Y-59584819D01*
X73591456Y-59550560D01*
X73561048Y-59520151D01*
X73526792Y-59451637D01*
X73526792Y-59344191D01*
X73561051Y-59275673D01*
X73587543Y-59249180D01*
X73695445Y-59213213D01*
X73698278Y-59213723D01*
X73704822Y-59211009D01*
X73948220Y-59211009D01*
X73948220Y-59584819D01*
G37*
G36*
X73948220Y-59061009D02*
G01*
X73707593Y-59061009D01*
X73639075Y-59026750D01*
X73608668Y-58996343D01*
X73574411Y-58927828D01*
X73574411Y-58868001D01*
X73608670Y-58799483D01*
X73639075Y-58769077D01*
X73707591Y-58734819D01*
X73948220Y-58734819D01*
X73948220Y-59061009D01*
G37*
G36*
X74727857Y-60157857D02*
G01*
X67340952Y-60157857D01*
X67340952Y-59670943D01*
X67898231Y-59670943D01*
X67916527Y-59711007D01*
X67953579Y-59734819D01*
X68255955Y-59734819D01*
X68272439Y-59737189D01*
X68277629Y-59734819D01*
X68557811Y-59734819D01*
X68589289Y-59725576D01*
X68618131Y-59692290D01*
X68624399Y-59648695D01*
X68606103Y-59608631D01*
X68602980Y-59606624D01*
X68850014Y-59606624D01*
X68853555Y-59622903D01*
X68854744Y-59639517D01*
X68858162Y-59644083D01*
X68859376Y-59649661D01*
X68871159Y-59661444D01*
X68881139Y-59674775D01*
X68886483Y-59676768D01*
X68909031Y-59699316D01*
X68909843Y-59702079D01*
X68920392Y-59711219D01*
X68928757Y-59722394D01*
X68936712Y-59725361D01*
X68943129Y-59730921D01*
X68951533Y-59732129D01*
X68958985Y-59736198D01*
X68964675Y-59735791D01*
X68970024Y-59737786D01*
X68978321Y-59735980D01*
X68986724Y-59737189D01*
X68994448Y-59733661D01*
X69002916Y-59733056D01*
X69007482Y-59729637D01*
X69013061Y-59728424D01*
X69019065Y-59722419D01*
X69026788Y-59718893D01*
X69031379Y-59711748D01*
X69038174Y-59706662D01*
X69040167Y-59701317D01*
X69072462Y-59669022D01*
X69085793Y-59659044D01*
X69091615Y-59643434D01*
X69099598Y-59628815D01*
X69099191Y-59623125D01*
X69101186Y-59617777D01*
X69097644Y-59601494D01*
X69096456Y-59584884D01*
X69093037Y-59580317D01*
X69091824Y-59574740D01*
X69080041Y-59562957D01*
X69070062Y-59549626D01*
X69064717Y-59547632D01*
X69042167Y-59525081D01*
X69041357Y-59522320D01*
X69030806Y-59513177D01*
X69022442Y-59502005D01*
X69014488Y-59499038D01*
X69008071Y-59493478D01*
X68999667Y-59492269D01*
X68992216Y-59488201D01*
X68986523Y-59488608D01*
X68981175Y-59486613D01*
X68972878Y-59488418D01*
X68964476Y-59487210D01*
X68956751Y-59490737D01*
X68948285Y-59491343D01*
X68943717Y-59494762D01*
X68938138Y-59495976D01*
X68932134Y-59501979D01*
X68924412Y-59505506D01*
X68919821Y-59512649D01*
X68913026Y-59517736D01*
X68911031Y-59523082D01*
X68878737Y-59555377D01*
X68865406Y-59565357D01*
X68859584Y-59580964D01*
X68851601Y-59595586D01*
X68852008Y-59601277D01*
X68850014Y-59606624D01*
X68602980Y-59606624D01*
X68569051Y-59584819D01*
X68336315Y-59584819D01*
X68336315Y-59275692D01*
X69326070Y-59275692D01*
X69329172Y-59288099D01*
X69329172Y-59289648D01*
X69331776Y-59298517D01*
X69375790Y-59474572D01*
X69374860Y-59483186D01*
X69381026Y-59495519D01*
X69381645Y-59497992D01*
X69385827Y-59505119D01*
X69428122Y-59589709D01*
X69430805Y-59602040D01*
X69445424Y-59616660D01*
X69459494Y-59631786D01*
X69460912Y-59632148D01*
X69487346Y-59658583D01*
X69493791Y-59669434D01*
X69512302Y-59678689D01*
X69530413Y-59688579D01*
X69531872Y-59688474D01*
X69605118Y-59725097D01*
X69620245Y-59734819D01*
X69635575Y-59734819D01*
X69650658Y-59737533D01*
X69657202Y-59734819D01*
X69733465Y-59734819D01*
X69751349Y-59736750D01*
X69765062Y-59729893D01*
X69779765Y-59725576D01*
X69784403Y-59720222D01*
X69857871Y-59683487D01*
X69870205Y-59680805D01*
X69884836Y-59666172D01*
X69899949Y-59652116D01*
X69900311Y-59650696D01*
X69926745Y-59624262D01*
X69937596Y-59617818D01*
X69946852Y-59599304D01*
X69956742Y-59581194D01*
X69956637Y-59579734D01*
X69989089Y-59514831D01*
X69995401Y-59508897D01*
X69998745Y-59495519D01*
X69999885Y-59493240D01*
X70001348Y-59485107D01*
X70045367Y-59309029D01*
X70050600Y-59300888D01*
X70050600Y-59288100D01*
X70050976Y-59286596D01*
X70050600Y-59277349D01*
X70050600Y-59144400D01*
X71088363Y-59144400D01*
X71091077Y-59150943D01*
X71091077Y-59229936D01*
X71090348Y-59250612D01*
X71091077Y-59251839D01*
X71091077Y-59610889D01*
X71090348Y-59631565D01*
X71091077Y-59632792D01*
X71091077Y-59670601D01*
X71100320Y-59702079D01*
X71133606Y-59730921D01*
X71177201Y-59737189D01*
X71214386Y-59720207D01*
X71224166Y-59725097D01*
X71239293Y-59734819D01*
X71254623Y-59734819D01*
X71269706Y-59737533D01*
X71276250Y-59734819D01*
X71495370Y-59734819D01*
X71513254Y-59736750D01*
X71526967Y-59729893D01*
X71541670Y-59725576D01*
X71546308Y-59720222D01*
X71611099Y-59687826D01*
X71614014Y-59687929D01*
X71630621Y-59678065D01*
X71637832Y-59674460D01*
X71639846Y-59672586D01*
X71642613Y-59670943D01*
X71850612Y-59670943D01*
X71868908Y-59711007D01*
X71905960Y-59734819D01*
X72019180Y-59734819D01*
X72037064Y-59736750D01*
X72050777Y-59729893D01*
X72065480Y-59725576D01*
X72070118Y-59720222D01*
X72134909Y-59687826D01*
X72137824Y-59687929D01*
X72154431Y-59678065D01*
X72161642Y-59674460D01*
X72163656Y-59672586D01*
X72175692Y-59665438D01*
X72179474Y-59657873D01*
X72185664Y-59652116D01*
X72189129Y-59638562D01*
X72231354Y-59554112D01*
X72241077Y-59538983D01*
X72241077Y-59523652D01*
X72243791Y-59508570D01*
X72241077Y-59502026D01*
X72241077Y-59226981D01*
X72516600Y-59226981D01*
X72519649Y-59239945D01*
X72519649Y-59242029D01*
X72522109Y-59250408D01*
X72526683Y-59269856D01*
X72528270Y-59271391D01*
X72528892Y-59273507D01*
X72543975Y-59286576D01*
X72558346Y-59300472D01*
X72560511Y-59300905D01*
X72562178Y-59302349D01*
X72581931Y-59305189D01*
X72995839Y-59387970D01*
X72995839Y-59499255D01*
X72967317Y-59556298D01*
X72910277Y-59584819D01*
X72755212Y-59584819D01*
X72666165Y-59540296D01*
X72633877Y-59534486D01*
X72593194Y-59551359D01*
X72568091Y-59587549D01*
X72566539Y-59631565D01*
X72589030Y-59669434D01*
X72700357Y-59725097D01*
X72715484Y-59734819D01*
X72730814Y-59734819D01*
X72745897Y-59737533D01*
X72752441Y-59734819D01*
X72923942Y-59734819D01*
X72941826Y-59736750D01*
X72955539Y-59729893D01*
X72970242Y-59725576D01*
X72974880Y-59720222D01*
X73039671Y-59687826D01*
X73042586Y-59687929D01*
X73059193Y-59678065D01*
X73066404Y-59674460D01*
X73068418Y-59672586D01*
X73080454Y-59665438D01*
X73084236Y-59657873D01*
X73090426Y-59652116D01*
X73093891Y-59638562D01*
X73136116Y-59554112D01*
X73145839Y-59538983D01*
X73145839Y-59523652D01*
X73148553Y-59508570D01*
X73145839Y-59502026D01*
X73145839Y-59339364D01*
X73147428Y-59334876D01*
X73374078Y-59334876D01*
X73376792Y-59341419D01*
X73376792Y-59465301D01*
X73374861Y-59483186D01*
X73381717Y-59496899D01*
X73386035Y-59511602D01*
X73391388Y-59516240D01*
X73428123Y-59589709D01*
X73430806Y-59602040D01*
X73445425Y-59616660D01*
X73459495Y-59631786D01*
X73460913Y-59632148D01*
X73487347Y-59658583D01*
X73493792Y-59669434D01*
X73512303Y-59678689D01*
X73530414Y-59688579D01*
X73531873Y-59688474D01*
X73605119Y-59725097D01*
X73620246Y-59734819D01*
X73635576Y-59734819D01*
X73650659Y-59737533D01*
X73657203Y-59734819D01*
X74017860Y-59734819D01*
X74034344Y-59737189D01*
X74049496Y-59730269D01*
X74065480Y-59725576D01*
X74069216Y-59721263D01*
X74074408Y-59718893D01*
X74083415Y-59704876D01*
X74094322Y-59692290D01*
X74095133Y-59686643D01*
X74098220Y-59681841D01*
X74098220Y-59665178D01*
X74100590Y-59648695D01*
X74098220Y-59643505D01*
X74098220Y-59141368D01*
X74100590Y-59124885D01*
X74098220Y-59119695D01*
X74098220Y-58665178D01*
X74100590Y-58648695D01*
X74093670Y-58633542D01*
X74088977Y-58617559D01*
X74084664Y-58613822D01*
X74082294Y-58608631D01*
X74068277Y-58599623D01*
X74055691Y-58588717D01*
X74050044Y-58587905D01*
X74045242Y-58584819D01*
X74028580Y-58584819D01*
X74012096Y-58582449D01*
X74006906Y-58584819D01*
X73693918Y-58584819D01*
X73676043Y-58582889D01*
X73662333Y-58589743D01*
X73647627Y-58594062D01*
X73642987Y-58599416D01*
X73569518Y-58636150D01*
X73557188Y-58638833D01*
X73542568Y-58653452D01*
X73527443Y-58667522D01*
X73527080Y-58668940D01*
X73500645Y-58695375D01*
X73489796Y-58701819D01*
X73480545Y-58720319D01*
X73470650Y-58738442D01*
X73470754Y-58739902D01*
X73434134Y-58813143D01*
X73424411Y-58828273D01*
X73424411Y-58843603D01*
X73421697Y-58858686D01*
X73424411Y-58865229D01*
X73424411Y-58941492D01*
X73422480Y-58959377D01*
X73429336Y-58973090D01*
X73433654Y-58987793D01*
X73439007Y-58992431D01*
X73475742Y-59065900D01*
X73478425Y-59078232D01*
X73493052Y-59092859D01*
X73507114Y-59107977D01*
X73508532Y-59108339D01*
X73514207Y-59114014D01*
X73509569Y-59115023D01*
X73498730Y-59125861D01*
X73486144Y-59134609D01*
X73483435Y-59141156D01*
X73453026Y-59171565D01*
X73442177Y-59178009D01*
X73432926Y-59196509D01*
X73423031Y-59214632D01*
X73423135Y-59216092D01*
X73386515Y-59289333D01*
X73376792Y-59304463D01*
X73376792Y-59319793D01*
X73374078Y-59334876D01*
X73147428Y-59334876D01*
X73148888Y-59330750D01*
X73145839Y-59317786D01*
X73145839Y-59140039D01*
X73147769Y-59122165D01*
X73140914Y-59108455D01*
X73136596Y-59093749D01*
X73131241Y-59089109D01*
X73098846Y-59024318D01*
X73098949Y-59021406D01*
X73089089Y-59004805D01*
X73085480Y-58997586D01*
X73083604Y-58995569D01*
X73076458Y-58983537D01*
X73068893Y-58979754D01*
X73063136Y-58973565D01*
X73049582Y-58970099D01*
X72965133Y-58927875D01*
X72950004Y-58918152D01*
X72934674Y-58918152D01*
X72919591Y-58915438D01*
X72913047Y-58918152D01*
X72741537Y-58918152D01*
X72723662Y-58916222D01*
X72709952Y-58923076D01*
X72695246Y-58927395D01*
X72690606Y-58932749D01*
X72625815Y-58965144D01*
X72622903Y-58965042D01*
X72606302Y-58974901D01*
X72599083Y-58978511D01*
X72597066Y-58980386D01*
X72585034Y-58987533D01*
X72581251Y-58995097D01*
X72575062Y-59000855D01*
X72571596Y-59014408D01*
X72529372Y-59098857D01*
X72519649Y-59113987D01*
X72519649Y-59129317D01*
X72516935Y-59144400D01*
X72519649Y-59150943D01*
X72519649Y-59218366D01*
X72516600Y-59226981D01*
X72241077Y-59226981D01*
X72241077Y-59068152D01*
X72319716Y-59068152D01*
X72351194Y-59058909D01*
X72380036Y-59025623D01*
X72386304Y-58982028D01*
X72368008Y-58941964D01*
X72330956Y-58918152D01*
X72241077Y-58918152D01*
X72241077Y-58649037D01*
X72231834Y-58617559D01*
X72198548Y-58588717D01*
X72154953Y-58582449D01*
X72114889Y-58600745D01*
X72091077Y-58637797D01*
X72091077Y-58918152D01*
X71917200Y-58918152D01*
X71885722Y-58927395D01*
X71856880Y-58960681D01*
X71850612Y-59004276D01*
X71868908Y-59044340D01*
X71905960Y-59068152D01*
X72091077Y-59068152D01*
X72091077Y-59499255D01*
X72062555Y-59556298D01*
X72005515Y-59584819D01*
X71917200Y-59584819D01*
X71885722Y-59594062D01*
X71856880Y-59627348D01*
X71850612Y-59670943D01*
X71642613Y-59670943D01*
X71651882Y-59665438D01*
X71655664Y-59657873D01*
X71661854Y-59652116D01*
X71665319Y-59638562D01*
X71707544Y-59554112D01*
X71717267Y-59538983D01*
X71717267Y-59523652D01*
X71719981Y-59508570D01*
X71717267Y-59502026D01*
X71717267Y-59425753D01*
X71719197Y-59407879D01*
X71712342Y-59394169D01*
X71708024Y-59379463D01*
X71702669Y-59374823D01*
X71670274Y-59310032D01*
X71670377Y-59307120D01*
X71660517Y-59290519D01*
X71656908Y-59283300D01*
X71655032Y-59281283D01*
X71647886Y-59269251D01*
X71640321Y-59265468D01*
X71634564Y-59259279D01*
X71621010Y-59255813D01*
X71536561Y-59213589D01*
X71521432Y-59203866D01*
X71506102Y-59203866D01*
X71491019Y-59201152D01*
X71484475Y-59203866D01*
X71279021Y-59203866D01*
X71241077Y-59184894D01*
X71241077Y-59153715D01*
X71269598Y-59096672D01*
X71326638Y-59068152D01*
X71481704Y-59068152D01*
X71570750Y-59112675D01*
X71603039Y-59118485D01*
X71643722Y-59101612D01*
X71668824Y-59065422D01*
X71670377Y-59021406D01*
X71647886Y-58983537D01*
X71536561Y-58927875D01*
X71521432Y-58918152D01*
X71506102Y-58918152D01*
X71491019Y-58915438D01*
X71484475Y-58918152D01*
X71312965Y-58918152D01*
X71295090Y-58916222D01*
X71281380Y-58923076D01*
X71266674Y-58927395D01*
X71262034Y-58932749D01*
X71197243Y-58965144D01*
X71194331Y-58965042D01*
X71177730Y-58974901D01*
X71170511Y-58978511D01*
X71168494Y-58980386D01*
X71156462Y-58987533D01*
X71152679Y-58995097D01*
X71146490Y-59000855D01*
X71143024Y-59014408D01*
X71100800Y-59098857D01*
X71091077Y-59113987D01*
X71091077Y-59129317D01*
X71088363Y-59144400D01*
X70050600Y-59144400D01*
X70050600Y-59053113D01*
X70053702Y-59043945D01*
X70050600Y-59031537D01*
X70050600Y-59029989D01*
X70047995Y-59021119D01*
X70003981Y-58845062D01*
X70004911Y-58836451D01*
X69998745Y-58824120D01*
X69998127Y-58821645D01*
X69993939Y-58814506D01*
X69951649Y-58729926D01*
X69948967Y-58717596D01*
X69934347Y-58702976D01*
X69920278Y-58687851D01*
X69918859Y-58687488D01*
X69892424Y-58661053D01*
X69885981Y-58650204D01*
X69867480Y-58640953D01*
X69849358Y-58631058D01*
X69847897Y-58631162D01*
X69774656Y-58594542D01*
X69759527Y-58584819D01*
X69744197Y-58584819D01*
X69729114Y-58582105D01*
X69722570Y-58584819D01*
X69646298Y-58584819D01*
X69628423Y-58582889D01*
X69614713Y-58589743D01*
X69600007Y-58594062D01*
X69595367Y-58599416D01*
X69521898Y-58636150D01*
X69509568Y-58638833D01*
X69494948Y-58653452D01*
X69479823Y-58667522D01*
X69479460Y-58668940D01*
X69453025Y-58695375D01*
X69442176Y-58701819D01*
X69432925Y-58720319D01*
X69423030Y-58738442D01*
X69423134Y-58739902D01*
X69390682Y-58804806D01*
X69384371Y-58810741D01*
X69381026Y-58824118D01*
X69379887Y-58826398D01*
X69378423Y-58834530D01*
X69334404Y-59010607D01*
X69329172Y-59018749D01*
X69329172Y-59031537D01*
X69328796Y-59033041D01*
X69329172Y-59042287D01*
X69329172Y-59266523D01*
X69326070Y-59275692D01*
X68336315Y-59275692D01*
X68336315Y-58888504D01*
X68392109Y-58944298D01*
X68398553Y-58955148D01*
X68417054Y-58964398D01*
X68435176Y-58974294D01*
X68436636Y-58974189D01*
X68523131Y-59017437D01*
X68555420Y-59023247D01*
X68596103Y-59006374D01*
X68621205Y-58970184D01*
X68622758Y-58926168D01*
X68600267Y-58888299D01*
X68496217Y-58836274D01*
X68414838Y-58754895D01*
X68330056Y-58627722D01*
X68327072Y-58617559D01*
X68318095Y-58609780D01*
X68317738Y-58609245D01*
X68309935Y-58602710D01*
X68293786Y-58588717D01*
X68293111Y-58588619D01*
X68292587Y-58588181D01*
X68271357Y-58585492D01*
X68250191Y-58582449D01*
X68249569Y-58582732D01*
X68248892Y-58582647D01*
X68229601Y-58591851D01*
X68210127Y-58600745D01*
X68209757Y-58601320D01*
X68209142Y-58601614D01*
X68197893Y-58619779D01*
X68186315Y-58637797D01*
X68186315Y-58638480D01*
X68185956Y-58639060D01*
X68186315Y-58660424D01*
X68186315Y-59584819D01*
X67964819Y-59584819D01*
X67933341Y-59594062D01*
X67904499Y-59627348D01*
X67898231Y-59670943D01*
X67340952Y-59670943D01*
X67340952Y-58047143D01*
X74727857Y-58047143D01*
X74727857Y-60157857D01*
G37*
D11*
X73956041Y-56777885D02*
X73917945Y-56739790D01*
X73917945Y-56739790D02*
X73841755Y-56701695D01*
X73841755Y-56701695D02*
X73651279Y-56701695D01*
X73651279Y-56701695D02*
X73575088Y-56739790D01*
X73575088Y-56739790D02*
X73536993Y-56777885D01*
X73536993Y-56777885D02*
X73498898Y-56854076D01*
X73498898Y-56854076D02*
X73498898Y-56930266D01*
X73498898Y-56930266D02*
X73536993Y-57044552D01*
X73536993Y-57044552D02*
X73994136Y-57501695D01*
X73994136Y-57501695D02*
X73498898Y-57501695D01*
X73003659Y-56701695D02*
X72927469Y-56701695D01*
X72927469Y-56701695D02*
X72851278Y-56739790D01*
X72851278Y-56739790D02*
X72813183Y-56777885D01*
X72813183Y-56777885D02*
X72775088Y-56854076D01*
X72775088Y-56854076D02*
X72736993Y-57006457D01*
X72736993Y-57006457D02*
X72736993Y-57196933D01*
X72736993Y-57196933D02*
X72775088Y-57349314D01*
X72775088Y-57349314D02*
X72813183Y-57425504D01*
X72813183Y-57425504D02*
X72851278Y-57463600D01*
X72851278Y-57463600D02*
X72927469Y-57501695D01*
X72927469Y-57501695D02*
X73003659Y-57501695D01*
X73003659Y-57501695D02*
X73079850Y-57463600D01*
X73079850Y-57463600D02*
X73117945Y-57425504D01*
X73117945Y-57425504D02*
X73156040Y-57349314D01*
X73156040Y-57349314D02*
X73194136Y-57196933D01*
X73194136Y-57196933D02*
X73194136Y-57006457D01*
X73194136Y-57006457D02*
X73156040Y-56854076D01*
X73156040Y-56854076D02*
X73117945Y-56777885D01*
X73117945Y-56777885D02*
X73079850Y-56739790D01*
X73079850Y-56739790D02*
X73003659Y-56701695D01*
X72432231Y-56777885D02*
X72394135Y-56739790D01*
X72394135Y-56739790D02*
X72317945Y-56701695D01*
X72317945Y-56701695D02*
X72127469Y-56701695D01*
X72127469Y-56701695D02*
X72051278Y-56739790D01*
X72051278Y-56739790D02*
X72013183Y-56777885D01*
X72013183Y-56777885D02*
X71975088Y-56854076D01*
X71975088Y-56854076D02*
X71975088Y-56930266D01*
X71975088Y-56930266D02*
X72013183Y-57044552D01*
X72013183Y-57044552D02*
X72470326Y-57501695D01*
X72470326Y-57501695D02*
X71975088Y-57501695D01*
X71708421Y-56701695D02*
X71213183Y-56701695D01*
X71213183Y-56701695D02*
X71479849Y-57006457D01*
X71479849Y-57006457D02*
X71365564Y-57006457D01*
X71365564Y-57006457D02*
X71289373Y-57044552D01*
X71289373Y-57044552D02*
X71251278Y-57082647D01*
X71251278Y-57082647D02*
X71213183Y-57158838D01*
X71213183Y-57158838D02*
X71213183Y-57349314D01*
X71213183Y-57349314D02*
X71251278Y-57425504D01*
X71251278Y-57425504D02*
X71289373Y-57463600D01*
X71289373Y-57463600D02*
X71365564Y-57501695D01*
X71365564Y-57501695D02*
X71594135Y-57501695D01*
X71594135Y-57501695D02*
X71670326Y-57463600D01*
X71670326Y-57463600D02*
X71708421Y-57425504D01*
X70870325Y-57425504D02*
X70832230Y-57463600D01*
X70832230Y-57463600D02*
X70870325Y-57501695D01*
X70870325Y-57501695D02*
X70908421Y-57463600D01*
X70908421Y-57463600D02*
X70870325Y-57425504D01*
X70870325Y-57425504D02*
X70870325Y-57501695D01*
X70070326Y-57501695D02*
X70527469Y-57501695D01*
X70298897Y-57501695D02*
X70298897Y-56701695D01*
X70298897Y-56701695D02*
X70375088Y-56815980D01*
X70375088Y-56815980D02*
X70451278Y-56892171D01*
X70451278Y-56892171D02*
X70527469Y-56930266D01*
X69308421Y-57501695D02*
X69765564Y-57501695D01*
X69536992Y-57501695D02*
X69536992Y-56701695D01*
X69536992Y-56701695D02*
X69613183Y-56815980D01*
X69613183Y-56815980D02*
X69689373Y-56892171D01*
X69689373Y-56892171D02*
X69765564Y-56930266D01*
X68965563Y-57425504D02*
X68927468Y-57463600D01*
X68927468Y-57463600D02*
X68965563Y-57501695D01*
X68965563Y-57501695D02*
X69003659Y-57463600D01*
X69003659Y-57463600D02*
X68965563Y-57425504D01*
X68965563Y-57425504D02*
X68965563Y-57501695D01*
X68622707Y-56777885D02*
X68584611Y-56739790D01*
X68584611Y-56739790D02*
X68508421Y-56701695D01*
X68508421Y-56701695D02*
X68317945Y-56701695D01*
X68317945Y-56701695D02*
X68241754Y-56739790D01*
X68241754Y-56739790D02*
X68203659Y-56777885D01*
X68203659Y-56777885D02*
X68165564Y-56854076D01*
X68165564Y-56854076D02*
X68165564Y-56930266D01*
X68165564Y-56930266D02*
X68203659Y-57044552D01*
X68203659Y-57044552D02*
X68660802Y-57501695D01*
X68660802Y-57501695D02*
X68165564Y-57501695D01*
X67860802Y-56777885D02*
X67822706Y-56739790D01*
X67822706Y-56739790D02*
X67746516Y-56701695D01*
X67746516Y-56701695D02*
X67556040Y-56701695D01*
X67556040Y-56701695D02*
X67479849Y-56739790D01*
X67479849Y-56739790D02*
X67441754Y-56777885D01*
X67441754Y-56777885D02*
X67403659Y-56854076D01*
X67403659Y-56854076D02*
X67403659Y-56930266D01*
X67403659Y-56930266D02*
X67441754Y-57044552D01*
X67441754Y-57044552D02*
X67898897Y-57501695D01*
X67898897Y-57501695D02*
X67403659Y-57501695D01*
X81879851Y-55851695D02*
X81879851Y-55051695D01*
X81879851Y-55051695D02*
X81689375Y-55051695D01*
X81689375Y-55051695D02*
X81575089Y-55089790D01*
X81575089Y-55089790D02*
X81498899Y-55165980D01*
X81498899Y-55165980D02*
X81460804Y-55242171D01*
X81460804Y-55242171D02*
X81422708Y-55394552D01*
X81422708Y-55394552D02*
X81422708Y-55508838D01*
X81422708Y-55508838D02*
X81460804Y-55661219D01*
X81460804Y-55661219D02*
X81498899Y-55737409D01*
X81498899Y-55737409D02*
X81575089Y-55813600D01*
X81575089Y-55813600D02*
X81689375Y-55851695D01*
X81689375Y-55851695D02*
X81879851Y-55851695D01*
X80775089Y-55813600D02*
X80851280Y-55851695D01*
X80851280Y-55851695D02*
X81003661Y-55851695D01*
X81003661Y-55851695D02*
X81079851Y-55813600D01*
X81079851Y-55813600D02*
X81117947Y-55737409D01*
X81117947Y-55737409D02*
X81117947Y-55432647D01*
X81117947Y-55432647D02*
X81079851Y-55356457D01*
X81079851Y-55356457D02*
X81003661Y-55318361D01*
X81003661Y-55318361D02*
X80851280Y-55318361D01*
X80851280Y-55318361D02*
X80775089Y-55356457D01*
X80775089Y-55356457D02*
X80736994Y-55432647D01*
X80736994Y-55432647D02*
X80736994Y-55508838D01*
X80736994Y-55508838D02*
X81117947Y-55585028D01*
X80432233Y-55813600D02*
X80356042Y-55851695D01*
X80356042Y-55851695D02*
X80203661Y-55851695D01*
X80203661Y-55851695D02*
X80127471Y-55813600D01*
X80127471Y-55813600D02*
X80089375Y-55737409D01*
X80089375Y-55737409D02*
X80089375Y-55699314D01*
X80089375Y-55699314D02*
X80127471Y-55623123D01*
X80127471Y-55623123D02*
X80203661Y-55585028D01*
X80203661Y-55585028D02*
X80317947Y-55585028D01*
X80317947Y-55585028D02*
X80394137Y-55546933D01*
X80394137Y-55546933D02*
X80432233Y-55470742D01*
X80432233Y-55470742D02*
X80432233Y-55432647D01*
X80432233Y-55432647D02*
X80394137Y-55356457D01*
X80394137Y-55356457D02*
X80317947Y-55318361D01*
X80317947Y-55318361D02*
X80203661Y-55318361D01*
X80203661Y-55318361D02*
X80127471Y-55356457D01*
X79746518Y-55851695D02*
X79746518Y-55318361D01*
X79746518Y-55051695D02*
X79784614Y-55089790D01*
X79784614Y-55089790D02*
X79746518Y-55127885D01*
X79746518Y-55127885D02*
X79708423Y-55089790D01*
X79708423Y-55089790D02*
X79746518Y-55051695D01*
X79746518Y-55051695D02*
X79746518Y-55127885D01*
X79022709Y-55318361D02*
X79022709Y-55965980D01*
X79022709Y-55965980D02*
X79060804Y-56042171D01*
X79060804Y-56042171D02*
X79098900Y-56080266D01*
X79098900Y-56080266D02*
X79175090Y-56118361D01*
X79175090Y-56118361D02*
X79289376Y-56118361D01*
X79289376Y-56118361D02*
X79365566Y-56080266D01*
X79022709Y-55813600D02*
X79098900Y-55851695D01*
X79098900Y-55851695D02*
X79251281Y-55851695D01*
X79251281Y-55851695D02*
X79327471Y-55813600D01*
X79327471Y-55813600D02*
X79365566Y-55775504D01*
X79365566Y-55775504D02*
X79403662Y-55699314D01*
X79403662Y-55699314D02*
X79403662Y-55470742D01*
X79403662Y-55470742D02*
X79365566Y-55394552D01*
X79365566Y-55394552D02*
X79327471Y-55356457D01*
X79327471Y-55356457D02*
X79251281Y-55318361D01*
X79251281Y-55318361D02*
X79098900Y-55318361D01*
X79098900Y-55318361D02*
X79022709Y-55356457D01*
X78641756Y-55318361D02*
X78641756Y-55851695D01*
X78641756Y-55394552D02*
X78603661Y-55356457D01*
X78603661Y-55356457D02*
X78527471Y-55318361D01*
X78527471Y-55318361D02*
X78413185Y-55318361D01*
X78413185Y-55318361D02*
X78336994Y-55356457D01*
X78336994Y-55356457D02*
X78298899Y-55432647D01*
X78298899Y-55432647D02*
X78298899Y-55851695D01*
X77613184Y-55813600D02*
X77689375Y-55851695D01*
X77689375Y-55851695D02*
X77841756Y-55851695D01*
X77841756Y-55851695D02*
X77917946Y-55813600D01*
X77917946Y-55813600D02*
X77956042Y-55737409D01*
X77956042Y-55737409D02*
X77956042Y-55432647D01*
X77956042Y-55432647D02*
X77917946Y-55356457D01*
X77917946Y-55356457D02*
X77841756Y-55318361D01*
X77841756Y-55318361D02*
X77689375Y-55318361D01*
X77689375Y-55318361D02*
X77613184Y-55356457D01*
X77613184Y-55356457D02*
X77575089Y-55432647D01*
X77575089Y-55432647D02*
X77575089Y-55508838D01*
X77575089Y-55508838D02*
X77956042Y-55585028D01*
X76889375Y-55851695D02*
X76889375Y-55051695D01*
X76889375Y-55813600D02*
X76965566Y-55851695D01*
X76965566Y-55851695D02*
X77117947Y-55851695D01*
X77117947Y-55851695D02*
X77194137Y-55813600D01*
X77194137Y-55813600D02*
X77232232Y-55775504D01*
X77232232Y-55775504D02*
X77270328Y-55699314D01*
X77270328Y-55699314D02*
X77270328Y-55470742D01*
X77270328Y-55470742D02*
X77232232Y-55394552D01*
X77232232Y-55394552D02*
X77194137Y-55356457D01*
X77194137Y-55356457D02*
X77117947Y-55318361D01*
X77117947Y-55318361D02*
X76965566Y-55318361D01*
X76965566Y-55318361D02*
X76889375Y-55356457D01*
X75632232Y-55432647D02*
X75517946Y-55470742D01*
X75517946Y-55470742D02*
X75479851Y-55508838D01*
X75479851Y-55508838D02*
X75441755Y-55585028D01*
X75441755Y-55585028D02*
X75441755Y-55699314D01*
X75441755Y-55699314D02*
X75479851Y-55775504D01*
X75479851Y-55775504D02*
X75517946Y-55813600D01*
X75517946Y-55813600D02*
X75594136Y-55851695D01*
X75594136Y-55851695D02*
X75898898Y-55851695D01*
X75898898Y-55851695D02*
X75898898Y-55051695D01*
X75898898Y-55051695D02*
X75632232Y-55051695D01*
X75632232Y-55051695D02*
X75556041Y-55089790D01*
X75556041Y-55089790D02*
X75517946Y-55127885D01*
X75517946Y-55127885D02*
X75479851Y-55204076D01*
X75479851Y-55204076D02*
X75479851Y-55280266D01*
X75479851Y-55280266D02*
X75517946Y-55356457D01*
X75517946Y-55356457D02*
X75556041Y-55394552D01*
X75556041Y-55394552D02*
X75632232Y-55432647D01*
X75632232Y-55432647D02*
X75898898Y-55432647D01*
X75175089Y-55318361D02*
X74984613Y-55851695D01*
X74794136Y-55318361D02*
X74984613Y-55851695D01*
X74984613Y-55851695D02*
X75060803Y-56042171D01*
X75060803Y-56042171D02*
X75098898Y-56080266D01*
X75098898Y-56080266D02*
X75175089Y-56118361D01*
X73879850Y-55851695D02*
X73879850Y-55051695D01*
X73879850Y-55051695D02*
X73613184Y-55623123D01*
X73613184Y-55623123D02*
X73346517Y-55051695D01*
X73346517Y-55051695D02*
X73346517Y-55851695D01*
X72660802Y-55813600D02*
X72736993Y-55851695D01*
X72736993Y-55851695D02*
X72889374Y-55851695D01*
X72889374Y-55851695D02*
X72965564Y-55813600D01*
X72965564Y-55813600D02*
X73003660Y-55737409D01*
X73003660Y-55737409D02*
X73003660Y-55432647D01*
X73003660Y-55432647D02*
X72965564Y-55356457D01*
X72965564Y-55356457D02*
X72889374Y-55318361D01*
X72889374Y-55318361D02*
X72736993Y-55318361D01*
X72736993Y-55318361D02*
X72660802Y-55356457D01*
X72660802Y-55356457D02*
X72622707Y-55432647D01*
X72622707Y-55432647D02*
X72622707Y-55508838D01*
X72622707Y-55508838D02*
X73003660Y-55585028D01*
X72279850Y-55318361D02*
X72279850Y-55851695D01*
X72279850Y-55394552D02*
X72241755Y-55356457D01*
X72241755Y-55356457D02*
X72165565Y-55318361D01*
X72165565Y-55318361D02*
X72051279Y-55318361D01*
X72051279Y-55318361D02*
X71975088Y-55356457D01*
X71975088Y-55356457D02*
X71936993Y-55432647D01*
X71936993Y-55432647D02*
X71936993Y-55851695D01*
X71213183Y-55318361D02*
X71213183Y-55965980D01*
X71213183Y-55965980D02*
X71251278Y-56042171D01*
X71251278Y-56042171D02*
X71289374Y-56080266D01*
X71289374Y-56080266D02*
X71365564Y-56118361D01*
X71365564Y-56118361D02*
X71479850Y-56118361D01*
X71479850Y-56118361D02*
X71556040Y-56080266D01*
X71213183Y-55813600D02*
X71289374Y-55851695D01*
X71289374Y-55851695D02*
X71441755Y-55851695D01*
X71441755Y-55851695D02*
X71517945Y-55813600D01*
X71517945Y-55813600D02*
X71556040Y-55775504D01*
X71556040Y-55775504D02*
X71594136Y-55699314D01*
X71594136Y-55699314D02*
X71594136Y-55470742D01*
X71594136Y-55470742D02*
X71556040Y-55394552D01*
X71556040Y-55394552D02*
X71517945Y-55356457D01*
X71517945Y-55356457D02*
X71441755Y-55318361D01*
X71441755Y-55318361D02*
X71289374Y-55318361D01*
X71289374Y-55318361D02*
X71213183Y-55356457D01*
X70565564Y-55432647D02*
X70451278Y-55470742D01*
X70451278Y-55470742D02*
X70413183Y-55508838D01*
X70413183Y-55508838D02*
X70375087Y-55585028D01*
X70375087Y-55585028D02*
X70375087Y-55699314D01*
X70375087Y-55699314D02*
X70413183Y-55775504D01*
X70413183Y-55775504D02*
X70451278Y-55813600D01*
X70451278Y-55813600D02*
X70527468Y-55851695D01*
X70527468Y-55851695D02*
X70832230Y-55851695D01*
X70832230Y-55851695D02*
X70832230Y-55051695D01*
X70832230Y-55051695D02*
X70565564Y-55051695D01*
X70565564Y-55051695D02*
X70489373Y-55089790D01*
X70489373Y-55089790D02*
X70451278Y-55127885D01*
X70451278Y-55127885D02*
X70413183Y-55204076D01*
X70413183Y-55204076D02*
X70413183Y-55280266D01*
X70413183Y-55280266D02*
X70451278Y-55356457D01*
X70451278Y-55356457D02*
X70489373Y-55394552D01*
X70489373Y-55394552D02*
X70565564Y-55432647D01*
X70565564Y-55432647D02*
X70832230Y-55432647D01*
X69917945Y-55851695D02*
X69994135Y-55813600D01*
X69994135Y-55813600D02*
X70032230Y-55775504D01*
X70032230Y-55775504D02*
X70070326Y-55699314D01*
X70070326Y-55699314D02*
X70070326Y-55470742D01*
X70070326Y-55470742D02*
X70032230Y-55394552D01*
X70032230Y-55394552D02*
X69994135Y-55356457D01*
X69994135Y-55356457D02*
X69917945Y-55318361D01*
X69917945Y-55318361D02*
X69803659Y-55318361D01*
X69803659Y-55318361D02*
X69727468Y-55356457D01*
X69727468Y-55356457D02*
X69689373Y-55394552D01*
X69689373Y-55394552D02*
X69651278Y-55470742D01*
X69651278Y-55470742D02*
X69651278Y-55699314D01*
X69651278Y-55699314D02*
X69689373Y-55775504D01*
X69689373Y-55775504D02*
X69727468Y-55813600D01*
X69727468Y-55813600D02*
X69803659Y-55851695D01*
X69803659Y-55851695D02*
X69917945Y-55851695D01*
X69384611Y-55318361D02*
X69232230Y-55851695D01*
X69232230Y-55851695D02*
X69079849Y-55470742D01*
X69079849Y-55470742D02*
X68927468Y-55851695D01*
X68927468Y-55851695D02*
X68775087Y-55318361D01*
X68165563Y-55813600D02*
X68241754Y-55851695D01*
X68241754Y-55851695D02*
X68394135Y-55851695D01*
X68394135Y-55851695D02*
X68470325Y-55813600D01*
X68470325Y-55813600D02*
X68508421Y-55737409D01*
X68508421Y-55737409D02*
X68508421Y-55432647D01*
X68508421Y-55432647D02*
X68470325Y-55356457D01*
X68470325Y-55356457D02*
X68394135Y-55318361D01*
X68394135Y-55318361D02*
X68241754Y-55318361D01*
X68241754Y-55318361D02*
X68165563Y-55356457D01*
X68165563Y-55356457D02*
X68127468Y-55432647D01*
X68127468Y-55432647D02*
X68127468Y-55508838D01*
X68127468Y-55508838D02*
X68508421Y-55585028D01*
X67784611Y-55318361D02*
X67784611Y-55851695D01*
X67784611Y-55394552D02*
X67746516Y-55356457D01*
X67746516Y-55356457D02*
X67670326Y-55318361D01*
X67670326Y-55318361D02*
X67556040Y-55318361D01*
X67556040Y-55318361D02*
X67479849Y-55356457D01*
X67479849Y-55356457D02*
X67441754Y-55432647D01*
X67441754Y-55432647D02*
X67441754Y-55851695D01*
D12*
%TO.C,R4*%
X93370000Y-61480000D03*
X95020000Y-61480000D03*
%TD*%
%TO.C,R3*%
X93370000Y-62940000D03*
X95020000Y-62940000D03*
%TD*%
D13*
%TO.C,R2*%
X95020000Y-60020000D03*
X93370000Y-60020000D03*
%TD*%
D12*
%TO.C,R1*%
X84205000Y-57090000D03*
X85855000Y-57090000D03*
%TD*%
D14*
%TO.C,J1*%
X100070000Y-63078000D03*
D15*
X100070000Y-60538000D03*
X100070000Y-57998000D03*
X100070000Y-55458000D03*
%TD*%
D16*
%TO.C,IC1*%
X81120000Y-58060000D03*
X81120000Y-59960000D03*
X78920000Y-59010000D03*
%TD*%
D17*
%TO.C,C8*%
X94970000Y-57100000D03*
X93420000Y-57100000D03*
%TD*%
%TO.C,C7*%
X94970000Y-55640000D03*
X93420000Y-55640000D03*
%TD*%
%TO.C,C6*%
X94970000Y-58560000D03*
X93420000Y-58560000D03*
%TD*%
D18*
%TO.C,C5*%
X84255000Y-55630000D03*
X85805000Y-55630000D03*
%TD*%
%TO.C,C4*%
X84255000Y-60010000D03*
X85805000Y-60010000D03*
%TD*%
%TO.C,C3*%
X84255000Y-58550000D03*
X85805000Y-58550000D03*
%TD*%
D17*
%TO.C,C2*%
X85805000Y-61470000D03*
X84255000Y-61470000D03*
%TD*%
%TO.C,C1*%
X85805000Y-62930000D03*
X84255000Y-62930000D03*
%TD*%
M02*
