%TF.GenerationSoftware,KiCad,Pcbnew,7.0.5*%
%TF.CreationDate,2023-11-23T16:42:44+08:00*%
%TF.ProjectId,0.87OLED_DevBoard,302e3837-4f4c-4454-945f-446576426f61,rev?*%
%TF.SameCoordinates,Original*%
%TF.FileFunction,Legend,Top*%
%TF.FilePolarity,Positive*%
%FSLAX46Y46*%
G04 Gerber Fmt 4.6, Leading zero omitted, Abs format (unit mm)*
G04 Created by KiCad (PCBNEW 7.0.5) date 2023-11-23 16:42:44*
%MOMM*%
%LPD*%
G01*
G04 APERTURE LIST*
%ADD10C,0.150000*%
%ADD11C,0.203000*%
%ADD12C,0.120000*%
%ADD13C,0.254000*%
%ADD14C,0.127000*%
G04 APERTURE END LIST*
D10*
X68002493Y-59019819D02*
X68002493Y-59734104D01*
X68002493Y-59734104D02*
X67954874Y-59876961D01*
X67954874Y-59876961D02*
X67859636Y-59972200D01*
X67859636Y-59972200D02*
X67716779Y-60019819D01*
X67716779Y-60019819D02*
X67621541Y-60019819D01*
X68954874Y-60019819D02*
X68478684Y-60019819D01*
X68478684Y-60019819D02*
X68478684Y-59019819D01*
X69859636Y-59924580D02*
X69812017Y-59972200D01*
X69812017Y-59972200D02*
X69669160Y-60019819D01*
X69669160Y-60019819D02*
X69573922Y-60019819D01*
X69573922Y-60019819D02*
X69431065Y-59972200D01*
X69431065Y-59972200D02*
X69335827Y-59876961D01*
X69335827Y-59876961D02*
X69288208Y-59781723D01*
X69288208Y-59781723D02*
X69240589Y-59591247D01*
X69240589Y-59591247D02*
X69240589Y-59448390D01*
X69240589Y-59448390D02*
X69288208Y-59257914D01*
X69288208Y-59257914D02*
X69335827Y-59162676D01*
X69335827Y-59162676D02*
X69431065Y-59067438D01*
X69431065Y-59067438D02*
X69573922Y-59019819D01*
X69573922Y-59019819D02*
X69669160Y-59019819D01*
X69669160Y-59019819D02*
X69812017Y-59067438D01*
X69812017Y-59067438D02*
X69859636Y-59115057D01*
X70573922Y-59019819D02*
X70573922Y-59734104D01*
X70573922Y-59734104D02*
X70526303Y-59876961D01*
X70526303Y-59876961D02*
X70431065Y-59972200D01*
X70431065Y-59972200D02*
X70288208Y-60019819D01*
X70288208Y-60019819D02*
X70192970Y-60019819D01*
X71526303Y-60019819D02*
X71050113Y-60019819D01*
X71050113Y-60019819D02*
X71050113Y-59019819D01*
X72431065Y-59924580D02*
X72383446Y-59972200D01*
X72383446Y-59972200D02*
X72240589Y-60019819D01*
X72240589Y-60019819D02*
X72145351Y-60019819D01*
X72145351Y-60019819D02*
X72002494Y-59972200D01*
X72002494Y-59972200D02*
X71907256Y-59876961D01*
X71907256Y-59876961D02*
X71859637Y-59781723D01*
X71859637Y-59781723D02*
X71812018Y-59591247D01*
X71812018Y-59591247D02*
X71812018Y-59448390D01*
X71812018Y-59448390D02*
X71859637Y-59257914D01*
X71859637Y-59257914D02*
X71907256Y-59162676D01*
X71907256Y-59162676D02*
X72002494Y-59067438D01*
X72002494Y-59067438D02*
X72145351Y-59019819D01*
X72145351Y-59019819D02*
X72240589Y-59019819D01*
X72240589Y-59019819D02*
X72383446Y-59067438D01*
X72383446Y-59067438D02*
X72431065Y-59115057D01*
X73145351Y-59019819D02*
X73145351Y-59734104D01*
X73145351Y-59734104D02*
X73097732Y-59876961D01*
X73097732Y-59876961D02*
X73002494Y-59972200D01*
X73002494Y-59972200D02*
X72859637Y-60019819D01*
X72859637Y-60019819D02*
X72764399Y-60019819D01*
X74097732Y-60019819D02*
X73621542Y-60019819D01*
X73621542Y-60019819D02*
X73621542Y-59019819D01*
X75002494Y-59924580D02*
X74954875Y-59972200D01*
X74954875Y-59972200D02*
X74812018Y-60019819D01*
X74812018Y-60019819D02*
X74716780Y-60019819D01*
X74716780Y-60019819D02*
X74573923Y-59972200D01*
X74573923Y-59972200D02*
X74478685Y-59876961D01*
X74478685Y-59876961D02*
X74431066Y-59781723D01*
X74431066Y-59781723D02*
X74383447Y-59591247D01*
X74383447Y-59591247D02*
X74383447Y-59448390D01*
X74383447Y-59448390D02*
X74431066Y-59257914D01*
X74431066Y-59257914D02*
X74478685Y-59162676D01*
X74478685Y-59162676D02*
X74573923Y-59067438D01*
X74573923Y-59067438D02*
X74716780Y-59019819D01*
X74716780Y-59019819D02*
X74812018Y-59019819D01*
X74812018Y-59019819D02*
X74954875Y-59067438D01*
X74954875Y-59067438D02*
X75002494Y-59115057D01*
X96752017Y-62812390D02*
X96675827Y-62774295D01*
X96675827Y-62774295D02*
X96561541Y-62774295D01*
X96561541Y-62774295D02*
X96447255Y-62812390D01*
X96447255Y-62812390D02*
X96371065Y-62888580D01*
X96371065Y-62888580D02*
X96332970Y-62964771D01*
X96332970Y-62964771D02*
X96294874Y-63117152D01*
X96294874Y-63117152D02*
X96294874Y-63231438D01*
X96294874Y-63231438D02*
X96332970Y-63383819D01*
X96332970Y-63383819D02*
X96371065Y-63460009D01*
X96371065Y-63460009D02*
X96447255Y-63536200D01*
X96447255Y-63536200D02*
X96561541Y-63574295D01*
X96561541Y-63574295D02*
X96637732Y-63574295D01*
X96637732Y-63574295D02*
X96752017Y-63536200D01*
X96752017Y-63536200D02*
X96790113Y-63498104D01*
X96790113Y-63498104D02*
X96790113Y-63231438D01*
X96790113Y-63231438D02*
X96637732Y-63231438D01*
X97132970Y-63574295D02*
X97132970Y-62774295D01*
X97132970Y-62774295D02*
X97590113Y-63574295D01*
X97590113Y-63574295D02*
X97590113Y-62774295D01*
X97971065Y-63574295D02*
X97971065Y-62774295D01*
X97971065Y-62774295D02*
X98161541Y-62774295D01*
X98161541Y-62774295D02*
X98275827Y-62812390D01*
X98275827Y-62812390D02*
X98352017Y-62888580D01*
X98352017Y-62888580D02*
X98390112Y-62964771D01*
X98390112Y-62964771D02*
X98428208Y-63117152D01*
X98428208Y-63117152D02*
X98428208Y-63231438D01*
X98428208Y-63231438D02*
X98390112Y-63383819D01*
X98390112Y-63383819D02*
X98352017Y-63460009D01*
X98352017Y-63460009D02*
X98275827Y-63536200D01*
X98275827Y-63536200D02*
X98161541Y-63574295D01*
X98161541Y-63574295D02*
X97971065Y-63574295D01*
X96294874Y-60234295D02*
X96561541Y-61034295D01*
X96561541Y-61034295D02*
X96828207Y-60234295D01*
X97552017Y-60958104D02*
X97513921Y-60996200D01*
X97513921Y-60996200D02*
X97399636Y-61034295D01*
X97399636Y-61034295D02*
X97323445Y-61034295D01*
X97323445Y-61034295D02*
X97209159Y-60996200D01*
X97209159Y-60996200D02*
X97132969Y-60920009D01*
X97132969Y-60920009D02*
X97094874Y-60843819D01*
X97094874Y-60843819D02*
X97056778Y-60691438D01*
X97056778Y-60691438D02*
X97056778Y-60577152D01*
X97056778Y-60577152D02*
X97094874Y-60424771D01*
X97094874Y-60424771D02*
X97132969Y-60348580D01*
X97132969Y-60348580D02*
X97209159Y-60272390D01*
X97209159Y-60272390D02*
X97323445Y-60234295D01*
X97323445Y-60234295D02*
X97399636Y-60234295D01*
X97399636Y-60234295D02*
X97513921Y-60272390D01*
X97513921Y-60272390D02*
X97552017Y-60310485D01*
X98352017Y-60958104D02*
X98313921Y-60996200D01*
X98313921Y-60996200D02*
X98199636Y-61034295D01*
X98199636Y-61034295D02*
X98123445Y-61034295D01*
X98123445Y-61034295D02*
X98009159Y-60996200D01*
X98009159Y-60996200D02*
X97932969Y-60920009D01*
X97932969Y-60920009D02*
X97894874Y-60843819D01*
X97894874Y-60843819D02*
X97856778Y-60691438D01*
X97856778Y-60691438D02*
X97856778Y-60577152D01*
X97856778Y-60577152D02*
X97894874Y-60424771D01*
X97894874Y-60424771D02*
X97932969Y-60348580D01*
X97932969Y-60348580D02*
X98009159Y-60272390D01*
X98009159Y-60272390D02*
X98123445Y-60234295D01*
X98123445Y-60234295D02*
X98199636Y-60234295D01*
X98199636Y-60234295D02*
X98313921Y-60272390D01*
X98313921Y-60272390D02*
X98352017Y-60310485D01*
X96409159Y-58296200D02*
X96523445Y-58334295D01*
X96523445Y-58334295D02*
X96713921Y-58334295D01*
X96713921Y-58334295D02*
X96790112Y-58296200D01*
X96790112Y-58296200D02*
X96828207Y-58258104D01*
X96828207Y-58258104D02*
X96866302Y-58181914D01*
X96866302Y-58181914D02*
X96866302Y-58105723D01*
X96866302Y-58105723D02*
X96828207Y-58029533D01*
X96828207Y-58029533D02*
X96790112Y-57991438D01*
X96790112Y-57991438D02*
X96713921Y-57953342D01*
X96713921Y-57953342D02*
X96561540Y-57915247D01*
X96561540Y-57915247D02*
X96485350Y-57877152D01*
X96485350Y-57877152D02*
X96447255Y-57839057D01*
X96447255Y-57839057D02*
X96409159Y-57762866D01*
X96409159Y-57762866D02*
X96409159Y-57686676D01*
X96409159Y-57686676D02*
X96447255Y-57610485D01*
X96447255Y-57610485D02*
X96485350Y-57572390D01*
X96485350Y-57572390D02*
X96561540Y-57534295D01*
X96561540Y-57534295D02*
X96752017Y-57534295D01*
X96752017Y-57534295D02*
X96866302Y-57572390D01*
X97666303Y-58258104D02*
X97628207Y-58296200D01*
X97628207Y-58296200D02*
X97513922Y-58334295D01*
X97513922Y-58334295D02*
X97437731Y-58334295D01*
X97437731Y-58334295D02*
X97323445Y-58296200D01*
X97323445Y-58296200D02*
X97247255Y-58220009D01*
X97247255Y-58220009D02*
X97209160Y-58143819D01*
X97209160Y-58143819D02*
X97171064Y-57991438D01*
X97171064Y-57991438D02*
X97171064Y-57877152D01*
X97171064Y-57877152D02*
X97209160Y-57724771D01*
X97209160Y-57724771D02*
X97247255Y-57648580D01*
X97247255Y-57648580D02*
X97323445Y-57572390D01*
X97323445Y-57572390D02*
X97437731Y-57534295D01*
X97437731Y-57534295D02*
X97513922Y-57534295D01*
X97513922Y-57534295D02*
X97628207Y-57572390D01*
X97628207Y-57572390D02*
X97666303Y-57610485D01*
X98390112Y-58334295D02*
X98009160Y-58334295D01*
X98009160Y-58334295D02*
X98009160Y-57534295D01*
X96390112Y-55766200D02*
X96504398Y-55804295D01*
X96504398Y-55804295D02*
X96694874Y-55804295D01*
X96694874Y-55804295D02*
X96771065Y-55766200D01*
X96771065Y-55766200D02*
X96809160Y-55728104D01*
X96809160Y-55728104D02*
X96847255Y-55651914D01*
X96847255Y-55651914D02*
X96847255Y-55575723D01*
X96847255Y-55575723D02*
X96809160Y-55499533D01*
X96809160Y-55499533D02*
X96771065Y-55461438D01*
X96771065Y-55461438D02*
X96694874Y-55423342D01*
X96694874Y-55423342D02*
X96542493Y-55385247D01*
X96542493Y-55385247D02*
X96466303Y-55347152D01*
X96466303Y-55347152D02*
X96428208Y-55309057D01*
X96428208Y-55309057D02*
X96390112Y-55232866D01*
X96390112Y-55232866D02*
X96390112Y-55156676D01*
X96390112Y-55156676D02*
X96428208Y-55080485D01*
X96428208Y-55080485D02*
X96466303Y-55042390D01*
X96466303Y-55042390D02*
X96542493Y-55004295D01*
X96542493Y-55004295D02*
X96732970Y-55004295D01*
X96732970Y-55004295D02*
X96847255Y-55042390D01*
X97190113Y-55804295D02*
X97190113Y-55004295D01*
X97190113Y-55004295D02*
X97380589Y-55004295D01*
X97380589Y-55004295D02*
X97494875Y-55042390D01*
X97494875Y-55042390D02*
X97571065Y-55118580D01*
X97571065Y-55118580D02*
X97609160Y-55194771D01*
X97609160Y-55194771D02*
X97647256Y-55347152D01*
X97647256Y-55347152D02*
X97647256Y-55461438D01*
X97647256Y-55461438D02*
X97609160Y-55613819D01*
X97609160Y-55613819D02*
X97571065Y-55690009D01*
X97571065Y-55690009D02*
X97494875Y-55766200D01*
X97494875Y-55766200D02*
X97380589Y-55804295D01*
X97380589Y-55804295D02*
X97190113Y-55804295D01*
X97952017Y-55575723D02*
X98332970Y-55575723D01*
X97875827Y-55804295D02*
X98142494Y-55004295D01*
X98142494Y-55004295D02*
X98409160Y-55804295D01*
D11*
%TO.C,U1*%
X68143552Y-57495194D02*
X67543552Y-57495194D01*
X67843552Y-57495194D02*
X67843552Y-56445194D01*
X67843552Y-56445194D02*
X67743552Y-56595194D01*
X67743552Y-56595194D02*
X67643552Y-56695194D01*
X67643552Y-56695194D02*
X67543552Y-56745194D01*
X68543552Y-56545194D02*
X68593552Y-56495194D01*
X68593552Y-56495194D02*
X68693552Y-56445194D01*
X68693552Y-56445194D02*
X68943552Y-56445194D01*
X68943552Y-56445194D02*
X69043552Y-56495194D01*
X69043552Y-56495194D02*
X69093552Y-56545194D01*
X69093552Y-56545194D02*
X69143552Y-56645194D01*
X69143552Y-56645194D02*
X69143552Y-56745194D01*
X69143552Y-56745194D02*
X69093552Y-56895194D01*
X69093552Y-56895194D02*
X68493552Y-57495194D01*
X68493552Y-57495194D02*
X69143552Y-57495194D01*
X69743552Y-56895194D02*
X69643552Y-56845194D01*
X69643552Y-56845194D02*
X69593552Y-56795194D01*
X69593552Y-56795194D02*
X69543552Y-56695194D01*
X69543552Y-56695194D02*
X69543552Y-56645194D01*
X69543552Y-56645194D02*
X69593552Y-56545194D01*
X69593552Y-56545194D02*
X69643552Y-56495194D01*
X69643552Y-56495194D02*
X69743552Y-56445194D01*
X69743552Y-56445194D02*
X69943552Y-56445194D01*
X69943552Y-56445194D02*
X70043552Y-56495194D01*
X70043552Y-56495194D02*
X70093552Y-56545194D01*
X70093552Y-56545194D02*
X70143552Y-56645194D01*
X70143552Y-56645194D02*
X70143552Y-56695194D01*
X70143552Y-56695194D02*
X70093552Y-56795194D01*
X70093552Y-56795194D02*
X70043552Y-56845194D01*
X70043552Y-56845194D02*
X69943552Y-56895194D01*
X69943552Y-56895194D02*
X69743552Y-56895194D01*
X69743552Y-56895194D02*
X69643552Y-56945194D01*
X69643552Y-56945194D02*
X69593552Y-56995194D01*
X69593552Y-56995194D02*
X69543552Y-57095194D01*
X69543552Y-57095194D02*
X69543552Y-57295194D01*
X69543552Y-57295194D02*
X69593552Y-57395194D01*
X69593552Y-57395194D02*
X69643552Y-57445194D01*
X69643552Y-57445194D02*
X69743552Y-57495194D01*
X69743552Y-57495194D02*
X69943552Y-57495194D01*
X69943552Y-57495194D02*
X70043552Y-57445194D01*
X70043552Y-57445194D02*
X70093552Y-57395194D01*
X70093552Y-57395194D02*
X70143552Y-57295194D01*
X70143552Y-57295194D02*
X70143552Y-57095194D01*
X70143552Y-57095194D02*
X70093552Y-56995194D01*
X70093552Y-56995194D02*
X70043552Y-56945194D01*
X70043552Y-56945194D02*
X69943552Y-56895194D01*
X70493552Y-57495194D02*
X71043552Y-56795194D01*
X70493552Y-56795194D02*
X71043552Y-57495194D01*
X71343552Y-56445194D02*
X71993552Y-56445194D01*
X71993552Y-56445194D02*
X71643552Y-56845194D01*
X71643552Y-56845194D02*
X71793552Y-56845194D01*
X71793552Y-56845194D02*
X71893552Y-56895194D01*
X71893552Y-56895194D02*
X71943552Y-56945194D01*
X71943552Y-56945194D02*
X71993552Y-57045194D01*
X71993552Y-57045194D02*
X71993552Y-57295194D01*
X71993552Y-57295194D02*
X71943552Y-57395194D01*
X71943552Y-57395194D02*
X71893552Y-57445194D01*
X71893552Y-57445194D02*
X71793552Y-57495194D01*
X71793552Y-57495194D02*
X71493552Y-57495194D01*
X71493552Y-57495194D02*
X71393552Y-57445194D01*
X71393552Y-57445194D02*
X71343552Y-57395194D01*
X72393552Y-56545194D02*
X72443552Y-56495194D01*
X72443552Y-56495194D02*
X72543552Y-56445194D01*
X72543552Y-56445194D02*
X72793552Y-56445194D01*
X72793552Y-56445194D02*
X72893552Y-56495194D01*
X72893552Y-56495194D02*
X72943552Y-56545194D01*
X72943552Y-56545194D02*
X72993552Y-56645194D01*
X72993552Y-56645194D02*
X72993552Y-56745194D01*
X72993552Y-56745194D02*
X72943552Y-56895194D01*
X72943552Y-56895194D02*
X72343552Y-57495194D01*
X72343552Y-57495194D02*
X72993552Y-57495194D01*
X74243552Y-57495194D02*
X74243552Y-56445194D01*
X74243552Y-56445194D02*
X74493552Y-56445194D01*
X74493552Y-56445194D02*
X74643552Y-56495194D01*
X74643552Y-56495194D02*
X74743552Y-56595194D01*
X74743552Y-56595194D02*
X74793552Y-56695194D01*
X74793552Y-56695194D02*
X74843552Y-56895194D01*
X74843552Y-56895194D02*
X74843552Y-57045194D01*
X74843552Y-57045194D02*
X74793552Y-57245194D01*
X74793552Y-57245194D02*
X74743552Y-57345194D01*
X74743552Y-57345194D02*
X74643552Y-57445194D01*
X74643552Y-57445194D02*
X74493552Y-57495194D01*
X74493552Y-57495194D02*
X74243552Y-57495194D01*
X75443552Y-57495194D02*
X75343552Y-57445194D01*
X75343552Y-57445194D02*
X75293552Y-57395194D01*
X75293552Y-57395194D02*
X75243552Y-57295194D01*
X75243552Y-57295194D02*
X75243552Y-56995194D01*
X75243552Y-56995194D02*
X75293552Y-56895194D01*
X75293552Y-56895194D02*
X75343552Y-56845194D01*
X75343552Y-56845194D02*
X75443552Y-56795194D01*
X75443552Y-56795194D02*
X75593552Y-56795194D01*
X75593552Y-56795194D02*
X75693552Y-56845194D01*
X75693552Y-56845194D02*
X75743552Y-56895194D01*
X75743552Y-56895194D02*
X75793552Y-56995194D01*
X75793552Y-56995194D02*
X75793552Y-57295194D01*
X75793552Y-57295194D02*
X75743552Y-57395194D01*
X75743552Y-57395194D02*
X75693552Y-57445194D01*
X75693552Y-57445194D02*
X75593552Y-57495194D01*
X75593552Y-57495194D02*
X75443552Y-57495194D01*
X76093552Y-56795194D02*
X76493552Y-56795194D01*
X76243552Y-56445194D02*
X76243552Y-57345194D01*
X76243552Y-57345194D02*
X76293552Y-57445194D01*
X76293552Y-57445194D02*
X76393552Y-57495194D01*
X76393552Y-57495194D02*
X76493552Y-57495194D01*
X76793552Y-57445194D02*
X76893552Y-57495194D01*
X76893552Y-57495194D02*
X77093552Y-57495194D01*
X77093552Y-57495194D02*
X77193552Y-57445194D01*
X77193552Y-57445194D02*
X77243552Y-57345194D01*
X77243552Y-57345194D02*
X77243552Y-57295194D01*
X77243552Y-57295194D02*
X77193552Y-57195194D01*
X77193552Y-57195194D02*
X77093552Y-57145194D01*
X77093552Y-57145194D02*
X76943552Y-57145194D01*
X76943552Y-57145194D02*
X76843552Y-57095194D01*
X76843552Y-57095194D02*
X76793552Y-56995194D01*
X76793552Y-56995194D02*
X76793552Y-56945194D01*
X76793552Y-56945194D02*
X76843552Y-56845194D01*
X76843552Y-56845194D02*
X76943552Y-56795194D01*
X76943552Y-56795194D02*
X77093552Y-56795194D01*
X77093552Y-56795194D02*
X77193552Y-56845194D01*
X78693552Y-56445194D02*
X78793552Y-56445194D01*
X78793552Y-56445194D02*
X78893552Y-56495194D01*
X78893552Y-56495194D02*
X78943552Y-56545194D01*
X78943552Y-56545194D02*
X78993552Y-56645194D01*
X78993552Y-56645194D02*
X79043552Y-56845194D01*
X79043552Y-56845194D02*
X79043552Y-57095194D01*
X79043552Y-57095194D02*
X78993552Y-57295194D01*
X78993552Y-57295194D02*
X78943552Y-57395194D01*
X78943552Y-57395194D02*
X78893552Y-57445194D01*
X78893552Y-57445194D02*
X78793552Y-57495194D01*
X78793552Y-57495194D02*
X78693552Y-57495194D01*
X78693552Y-57495194D02*
X78593552Y-57445194D01*
X78593552Y-57445194D02*
X78543552Y-57395194D01*
X78543552Y-57395194D02*
X78493552Y-57295194D01*
X78493552Y-57295194D02*
X78443552Y-57095194D01*
X78443552Y-57095194D02*
X78443552Y-56845194D01*
X78443552Y-56845194D02*
X78493552Y-56645194D01*
X78493552Y-56645194D02*
X78543552Y-56545194D01*
X78543552Y-56545194D02*
X78593552Y-56495194D01*
X78593552Y-56495194D02*
X78693552Y-56445194D01*
X79493552Y-57395194D02*
X79543552Y-57445194D01*
X79543552Y-57445194D02*
X79493552Y-57495194D01*
X79493552Y-57495194D02*
X79443552Y-57445194D01*
X79443552Y-57445194D02*
X79493552Y-57395194D01*
X79493552Y-57395194D02*
X79493552Y-57495194D01*
X80143552Y-56895194D02*
X80043552Y-56845194D01*
X80043552Y-56845194D02*
X79993552Y-56795194D01*
X79993552Y-56795194D02*
X79943552Y-56695194D01*
X79943552Y-56695194D02*
X79943552Y-56645194D01*
X79943552Y-56645194D02*
X79993552Y-56545194D01*
X79993552Y-56545194D02*
X80043552Y-56495194D01*
X80043552Y-56495194D02*
X80143552Y-56445194D01*
X80143552Y-56445194D02*
X80343552Y-56445194D01*
X80343552Y-56445194D02*
X80443552Y-56495194D01*
X80443552Y-56495194D02*
X80493552Y-56545194D01*
X80493552Y-56545194D02*
X80543552Y-56645194D01*
X80543552Y-56645194D02*
X80543552Y-56695194D01*
X80543552Y-56695194D02*
X80493552Y-56795194D01*
X80493552Y-56795194D02*
X80443552Y-56845194D01*
X80443552Y-56845194D02*
X80343552Y-56895194D01*
X80343552Y-56895194D02*
X80143552Y-56895194D01*
X80143552Y-56895194D02*
X80043552Y-56945194D01*
X80043552Y-56945194D02*
X79993552Y-56995194D01*
X79993552Y-56995194D02*
X79943552Y-57095194D01*
X79943552Y-57095194D02*
X79943552Y-57295194D01*
X79943552Y-57295194D02*
X79993552Y-57395194D01*
X79993552Y-57395194D02*
X80043552Y-57445194D01*
X80043552Y-57445194D02*
X80143552Y-57495194D01*
X80143552Y-57495194D02*
X80343552Y-57495194D01*
X80343552Y-57495194D02*
X80443552Y-57445194D01*
X80443552Y-57445194D02*
X80493552Y-57395194D01*
X80493552Y-57395194D02*
X80543552Y-57295194D01*
X80543552Y-57295194D02*
X80543552Y-57095194D01*
X80543552Y-57095194D02*
X80493552Y-56995194D01*
X80493552Y-56995194D02*
X80443552Y-56945194D01*
X80443552Y-56945194D02*
X80343552Y-56895194D01*
X80893552Y-56445194D02*
X81593552Y-56445194D01*
X81593552Y-56445194D02*
X81143552Y-57495194D01*
X81943552Y-56445194D02*
X81943552Y-56645194D01*
X82343552Y-56445194D02*
X82343552Y-56645194D01*
D12*
%TO.C,J1*%
X98740000Y-61808000D02*
X98740000Y-54128000D01*
X101400000Y-63078000D02*
X101400000Y-64408000D01*
X101400000Y-54128000D02*
X98740000Y-54128000D01*
X101400000Y-61808000D02*
X98740000Y-61808000D01*
X101400000Y-64408000D02*
X100070000Y-64408000D01*
X101400000Y-61808000D02*
X101400000Y-54128000D01*
D13*
%TO.C,U1*%
X65355000Y-54921000D02*
X94355000Y-54921000D01*
D14*
X94678000Y-62836000D02*
X94355000Y-62836000D01*
X95855000Y-62836000D02*
X95446000Y-62836000D01*
X94738000Y-55736000D02*
X94355000Y-55736000D01*
X95855000Y-55736000D02*
X95386000Y-55736000D01*
X95855000Y-62836000D02*
X95855000Y-55736000D01*
X88861000Y-55059000D02*
X88848000Y-63525000D01*
X88848000Y-63525000D02*
X94789000Y-63521000D01*
X88861000Y-55059000D02*
X94701000Y-55059000D01*
X95514000Y-55395000D02*
X95855000Y-55736000D01*
X95439000Y-63252000D02*
X95855000Y-62836000D01*
D13*
X94355000Y-63621000D02*
X94355000Y-54921000D01*
X88491000Y-62737000D02*
X67091000Y-62737000D01*
X67091000Y-62737000D02*
X67091000Y-55937000D01*
X67091000Y-55937000D02*
X88491000Y-55937000D01*
X88491000Y-55937000D02*
X88491000Y-62737000D01*
X65355000Y-54921000D02*
X65355000Y-63621000D01*
X94355000Y-63621000D02*
X65355000Y-63621000D01*
D14*
X94788981Y-63521238D02*
G75*
G03*
X95438999Y-63251999I19J919238D01*
G01*
X95514000Y-55395000D02*
G75*
G03*
X94701000Y-55058244I-813000J-813000D01*
G01*
%TD*%
M02*
