%TF.GenerationSoftware,KiCad,Pcbnew,7.0.5*%
%TF.CreationDate,2023-11-23T16:42:44+08:00*%
%TF.ProjectId,0.87OLED_DevBoard,302e3837-4f4c-4454-945f-446576426f61,rev?*%
%TF.SameCoordinates,Original*%
%TF.FileFunction,Copper,L2,Bot*%
%TF.FilePolarity,Positive*%
%FSLAX46Y46*%
G04 Gerber Fmt 4.6, Leading zero omitted, Abs format (unit mm)*
G04 Created by KiCad (PCBNEW 7.0.5) date 2023-11-23 16:42:44*
%MOMM*%
%LPD*%
G01*
G04 APERTURE LIST*
G04 Aperture macros list*
%AMRoundRect*
0 Rectangle with rounded corners*
0 $1 Rounding radius*
0 $2 $3 $4 $5 $6 $7 $8 $9 X,Y pos of 4 corners*
0 Add a 4 corners polygon primitive as box body*
4,1,4,$2,$3,$4,$5,$6,$7,$8,$9,$2,$3,0*
0 Add four circle primitives for the rounded corners*
1,1,$1+$1,$2,$3*
1,1,$1+$1,$4,$5*
1,1,$1+$1,$6,$7*
1,1,$1+$1,$8,$9*
0 Add four rect primitives between the rounded corners*
20,1,$1+$1,$2,$3,$4,$5,0*
20,1,$1+$1,$4,$5,$6,$7,0*
20,1,$1+$1,$6,$7,$8,$9,0*
20,1,$1+$1,$8,$9,$2,$3,0*%
G04 Aperture macros list end*
%TA.AperFunction,SMDPad,CuDef*%
%ADD10RoundRect,0.200000X-0.200000X-0.275000X0.200000X-0.275000X0.200000X0.275000X-0.200000X0.275000X0*%
%TD*%
%TA.AperFunction,SMDPad,CuDef*%
%ADD11RoundRect,0.200000X0.200000X0.275000X-0.200000X0.275000X-0.200000X-0.275000X0.200000X-0.275000X0*%
%TD*%
%TA.AperFunction,ComponentPad*%
%ADD12R,1.700000X1.700000*%
%TD*%
%TA.AperFunction,ComponentPad*%
%ADD13O,1.700000X1.700000*%
%TD*%
%TA.AperFunction,SMDPad,CuDef*%
%ADD14R,1.100000X0.600000*%
%TD*%
%TA.AperFunction,SMDPad,CuDef*%
%ADD15RoundRect,0.225000X0.225000X0.250000X-0.225000X0.250000X-0.225000X-0.250000X0.225000X-0.250000X0*%
%TD*%
%TA.AperFunction,SMDPad,CuDef*%
%ADD16RoundRect,0.225000X-0.225000X-0.250000X0.225000X-0.250000X0.225000X0.250000X-0.225000X0.250000X0*%
%TD*%
%TA.AperFunction,ViaPad*%
%ADD17C,0.450000*%
%TD*%
%TA.AperFunction,Conductor*%
%ADD18C,0.300000*%
%TD*%
%TA.AperFunction,Conductor*%
%ADD19C,0.150000*%
%TD*%
G04 APERTURE END LIST*
D10*
%TO.P,R4,1*%
%TO.N,/VCC_OLED*%
X93370000Y-61480000D03*
%TO.P,R4,2*%
%TO.N,/OLED_SDA*%
X95020000Y-61480000D03*
%TD*%
%TO.P,R3,1*%
%TO.N,/VCC_OLED*%
X93370000Y-62940000D03*
%TO.P,R3,2*%
%TO.N,/OLED_SCL*%
X95020000Y-62940000D03*
%TD*%
D11*
%TO.P,R2,1*%
%TO.N,GND*%
X95020000Y-60020000D03*
%TO.P,R2,2*%
%TO.N,Net-(U1-IREF)*%
X93370000Y-60020000D03*
%TD*%
D10*
%TO.P,R1,1*%
%TO.N,/VCC_OLED*%
X84205000Y-57090000D03*
%TO.P,R1,2*%
%TO.N,Net-(U1-RES#)*%
X85855000Y-57090000D03*
%TD*%
D12*
%TO.P,J1,1,Pin_1*%
%TO.N,GND*%
X100070000Y-63078000D03*
D13*
%TO.P,J1,2,Pin_2*%
%TO.N,/VCC_IN*%
X100070000Y-60538000D03*
%TO.P,J1,3,Pin_3*%
%TO.N,/OLED_SCL*%
X100070000Y-57998000D03*
%TO.P,J1,4,Pin_4*%
%TO.N,/OLED_SDA*%
X100070000Y-55458000D03*
%TD*%
D14*
%TO.P,IC1,1,VSS*%
%TO.N,GND*%
X81120000Y-58060000D03*
%TO.P,IC1,2,VOUT*%
%TO.N,/VCC_OLED*%
X81120000Y-59960000D03*
%TO.P,IC1,3,VIN*%
%TO.N,/VCC_IN*%
X78920000Y-59010000D03*
%TD*%
D15*
%TO.P,C8,1*%
%TO.N,GND*%
X94970000Y-57100000D03*
%TO.P,C8,2*%
%TO.N,Net-(U1-VCC)*%
X93420000Y-57100000D03*
%TD*%
%TO.P,C7,1*%
%TO.N,GND*%
X94970000Y-55640000D03*
%TO.P,C7,2*%
%TO.N,Net-(U1-VCC)*%
X93420000Y-55640000D03*
%TD*%
%TO.P,C6,1*%
%TO.N,GND*%
X94970000Y-58560000D03*
%TO.P,C6,2*%
%TO.N,Net-(U1-VCOMH)*%
X93420000Y-58560000D03*
%TD*%
D16*
%TO.P,C5,1*%
%TO.N,GND*%
X84255000Y-55630000D03*
%TO.P,C5,2*%
%TO.N,Net-(U1-RES#)*%
X85805000Y-55630000D03*
%TD*%
%TO.P,C4,1*%
%TO.N,GND*%
X84255000Y-60010000D03*
%TO.P,C4,2*%
%TO.N,/VCC_OLED*%
X85805000Y-60010000D03*
%TD*%
%TO.P,C3,1*%
%TO.N,GND*%
X84255000Y-58550000D03*
%TO.P,C3,2*%
%TO.N,/VCC_OLED*%
X85805000Y-58550000D03*
%TD*%
D15*
%TO.P,C2,1*%
%TO.N,Net-(U1-c1n)*%
X85805000Y-61470000D03*
%TO.P,C2,2*%
%TO.N,Net-(U1-c1p)*%
X84255000Y-61470000D03*
%TD*%
%TO.P,C1,1*%
%TO.N,Net-(U1-c2n)*%
X85805000Y-62930000D03*
%TO.P,C1,2*%
%TO.N,Net-(U1-c2p)*%
X84255000Y-62930000D03*
%TD*%
D17*
%TO.N,/VCC_OLED*%
X92450000Y-60860000D03*
%TO.N,/OLED_SCL*%
X94270000Y-62270000D03*
%TO.N,/OLED_SDA*%
X94200000Y-60800000D03*
%TO.N,Net-(U1-IREF)*%
X94210000Y-59330000D03*
%TO.N,Net-(U1-VCOMH)*%
X94200000Y-57870000D03*
%TO.N,Net-(U1-VCC)*%
X92460000Y-55310000D03*
%TO.N,/VCC_OLED*%
X87150000Y-58970000D03*
X87090000Y-60370000D03*
%TO.N,Net-(U1-c2p)*%
X85030000Y-63550000D03*
%TO.N,Net-(U1-c2n)*%
X87090000Y-62700000D03*
%TO.N,Net-(U1-c1p)*%
X85010000Y-62180000D03*
%TO.N,Net-(U1-c1n)*%
X87070000Y-61430000D03*
%TO.N,Net-(U1-RES#)*%
X86650000Y-57090000D03*
%TD*%
D18*
%TO.N,/VCC_OLED*%
X83010000Y-57400000D02*
X83320000Y-57090000D01*
X83010000Y-59360000D02*
X83010000Y-57400000D01*
X82410000Y-59960000D02*
X83010000Y-59360000D01*
X83320000Y-57090000D02*
X84205000Y-57090000D01*
X81120000Y-59960000D02*
X82410000Y-59960000D01*
%TO.N,/VCC_IN*%
X78920000Y-62010000D02*
X78920000Y-59010000D01*
X81035000Y-64125000D02*
X78920000Y-62010000D01*
X96595000Y-64125000D02*
X81035000Y-64125000D01*
X96640000Y-64080000D02*
X96595000Y-64125000D01*
X97530000Y-64080000D02*
X96640000Y-64080000D01*
X98440000Y-63170000D02*
X97530000Y-64080000D01*
X98440000Y-62168000D02*
X98440000Y-63170000D01*
X100070000Y-60538000D02*
X98440000Y-62168000D01*
%TO.N,/OLED_SDA*%
X98622000Y-55458000D02*
X100070000Y-55458000D01*
X97090000Y-56990000D02*
X98622000Y-55458000D01*
X97090000Y-60740000D02*
X97090000Y-56990000D01*
X95020000Y-61480000D02*
X96350000Y-61480000D01*
X96350000Y-61480000D02*
X97090000Y-60740000D01*
%TO.N,/OLED_SCL*%
X98762000Y-57998000D02*
X100070000Y-57998000D01*
X97830000Y-58930000D02*
X98762000Y-57998000D01*
X97830000Y-62300000D02*
X97830000Y-58930000D01*
X97190000Y-62940000D02*
X97830000Y-62300000D01*
X95020000Y-62940000D02*
X97190000Y-62940000D01*
%TO.N,/VCC_OLED*%
X93070000Y-61480000D02*
X92450000Y-60860000D01*
X93370000Y-61480000D02*
X93070000Y-61480000D01*
X93370000Y-61480000D02*
X93370000Y-62940000D01*
D19*
%TO.N,/OLED_SCL*%
X94350000Y-62270000D02*
X95020000Y-62940000D01*
X94270000Y-62270000D02*
X94350000Y-62270000D01*
%TO.N,/OLED_SDA*%
X94200000Y-60800000D02*
X94340000Y-60800000D01*
X94340000Y-60800000D02*
X95020000Y-61480000D01*
%TO.N,Net-(U1-IREF)*%
X94210000Y-59330000D02*
X94060000Y-59330000D01*
X94060000Y-59330000D02*
X93370000Y-60020000D01*
%TO.N,Net-(U1-VCOMH)*%
X94110000Y-57870000D02*
X93420000Y-58560000D01*
X94200000Y-57870000D02*
X94110000Y-57870000D01*
D18*
%TO.N,Net-(U1-VCC)*%
X92790000Y-55640000D02*
X92460000Y-55310000D01*
X93420000Y-55640000D02*
X92790000Y-55640000D01*
X93420000Y-55640000D02*
X93420000Y-57100000D01*
%TO.N,/VCC_OLED*%
X87090000Y-60370000D02*
X86730000Y-60010000D01*
X86730000Y-60010000D02*
X85805000Y-60010000D01*
X86930000Y-58970000D02*
X86510000Y-58550000D01*
X86510000Y-58550000D02*
X85805000Y-58550000D01*
X87150000Y-58970000D02*
X86930000Y-58970000D01*
X84345000Y-57090000D02*
X85805000Y-58550000D01*
X84205000Y-57090000D02*
X84345000Y-57090000D01*
X85805000Y-58550000D02*
X85805000Y-60010000D01*
D19*
%TO.N,Net-(U1-RES#)*%
X85805000Y-57040000D02*
X85855000Y-57090000D01*
X85805000Y-55630000D02*
X85805000Y-57040000D01*
%TO.N,Net-(U1-c2p)*%
X84410000Y-62930000D02*
X85030000Y-63550000D01*
X84255000Y-62930000D02*
X84410000Y-62930000D01*
%TO.N,Net-(U1-c2n)*%
X87090000Y-62700000D02*
X86035000Y-62700000D01*
X86035000Y-62700000D02*
X85805000Y-62930000D01*
%TO.N,Net-(U1-c1p)*%
X84300000Y-61470000D02*
X85010000Y-62180000D01*
X84255000Y-61470000D02*
X84300000Y-61470000D01*
%TO.N,Net-(U1-c1n)*%
X85845000Y-61430000D02*
X85805000Y-61470000D01*
X87070000Y-61430000D02*
X85845000Y-61430000D01*
%TO.N,Net-(U1-RES#)*%
X86650000Y-57090000D02*
X85855000Y-57090000D01*
%TD*%
%TA.AperFunction,Conductor*%
%TO.N,GND*%
G36*
X101428691Y-54099407D02*
G01*
X101464655Y-54148907D01*
X101469500Y-54179500D01*
X101469500Y-64360500D01*
X101450593Y-64418691D01*
X101401093Y-64454655D01*
X101370500Y-64459500D01*
X97885189Y-64459500D01*
X97826998Y-64440593D01*
X97791034Y-64391093D01*
X97791034Y-64329907D01*
X97815185Y-64290496D01*
X98654884Y-63450796D01*
X98670734Y-63437926D01*
X98680669Y-63431437D01*
X98701338Y-63404879D01*
X98705388Y-63400292D01*
X98708375Y-63397307D01*
X98720487Y-63380340D01*
X98721630Y-63378807D01*
X98752517Y-63339126D01*
X98752517Y-63339123D01*
X98756008Y-63332673D01*
X98759237Y-63326069D01*
X98759237Y-63326068D01*
X98759239Y-63326066D01*
X98772782Y-63280573D01*
X98773566Y-63277941D01*
X98774191Y-63275991D01*
X98777399Y-63266644D01*
X98790500Y-63228488D01*
X98790500Y-63228485D01*
X98791706Y-63221259D01*
X98792615Y-63213959D01*
X98792617Y-63213954D01*
X98790541Y-63163767D01*
X98790500Y-63161756D01*
X98790500Y-62354189D01*
X98809407Y-62295998D01*
X98819496Y-62284185D01*
X99182209Y-61921472D01*
X99566087Y-61537593D01*
X99620602Y-61509818D01*
X99664827Y-61512862D01*
X99666045Y-61513231D01*
X99666046Y-61513232D01*
X99746361Y-61537595D01*
X99864065Y-61573300D01*
X99864070Y-61573301D01*
X100069997Y-61593583D01*
X100070000Y-61593583D01*
X100070003Y-61593583D01*
X100275929Y-61573301D01*
X100275934Y-61573300D01*
X100275933Y-61573299D01*
X100473954Y-61513232D01*
X100656450Y-61415685D01*
X100816410Y-61284410D01*
X100947685Y-61124450D01*
X101045232Y-60941954D01*
X101105300Y-60743934D01*
X101105301Y-60743929D01*
X101125583Y-60538003D01*
X101125583Y-60537996D01*
X101105301Y-60332070D01*
X101105300Y-60332065D01*
X101080163Y-60249199D01*
X101045232Y-60134046D01*
X100947685Y-59951550D01*
X100816410Y-59791590D01*
X100811866Y-59787861D01*
X100656452Y-59660316D01*
X100473954Y-59562768D01*
X100275934Y-59502699D01*
X100275929Y-59502698D01*
X100070003Y-59482417D01*
X100069997Y-59482417D01*
X99864070Y-59502698D01*
X99864065Y-59502699D01*
X99666045Y-59562768D01*
X99483547Y-59660316D01*
X99323595Y-59791585D01*
X99323585Y-59791595D01*
X99192316Y-59951547D01*
X99094768Y-60134045D01*
X99034699Y-60332065D01*
X99034698Y-60332070D01*
X99014417Y-60537996D01*
X99014417Y-60538003D01*
X99034698Y-60743929D01*
X99034699Y-60743934D01*
X99095137Y-60943170D01*
X99093936Y-61004344D01*
X99070404Y-61041912D01*
X98349504Y-61762813D01*
X98294987Y-61790590D01*
X98234555Y-61781019D01*
X98191290Y-61737754D01*
X98180500Y-61692809D01*
X98180500Y-59116189D01*
X98199407Y-59057998D01*
X98209490Y-59046191D01*
X98878186Y-58377495D01*
X98932703Y-58349719D01*
X98948190Y-58348500D01*
X99006858Y-58348500D01*
X99065049Y-58367407D01*
X99094168Y-58400831D01*
X99192316Y-58584452D01*
X99289354Y-58702693D01*
X99323590Y-58744410D01*
X99323595Y-58744414D01*
X99483547Y-58875683D01*
X99483548Y-58875683D01*
X99483550Y-58875685D01*
X99666046Y-58973232D01*
X99803997Y-59015078D01*
X99864065Y-59033300D01*
X99864070Y-59033301D01*
X100069997Y-59053583D01*
X100070000Y-59053583D01*
X100070003Y-59053583D01*
X100275929Y-59033301D01*
X100275934Y-59033300D01*
X100275933Y-59033299D01*
X100473954Y-58973232D01*
X100656450Y-58875685D01*
X100816410Y-58744410D01*
X100947685Y-58584450D01*
X101045232Y-58401954D01*
X101105300Y-58203934D01*
X101105301Y-58203929D01*
X101125583Y-57998003D01*
X101125583Y-57997996D01*
X101105301Y-57792070D01*
X101105300Y-57792065D01*
X101080042Y-57708802D01*
X101045232Y-57594046D01*
X100947685Y-57411550D01*
X100924655Y-57383488D01*
X100816414Y-57251595D01*
X100816410Y-57251590D01*
X100799050Y-57237343D01*
X100656452Y-57120316D01*
X100473954Y-57022768D01*
X100275934Y-56962699D01*
X100275929Y-56962698D01*
X100070003Y-56942417D01*
X100069997Y-56942417D01*
X99864070Y-56962698D01*
X99864065Y-56962699D01*
X99666045Y-57022768D01*
X99483547Y-57120316D01*
X99323595Y-57251585D01*
X99323585Y-57251595D01*
X99192316Y-57411547D01*
X99094168Y-57595169D01*
X99050062Y-57637575D01*
X99006858Y-57647500D01*
X98808619Y-57647500D01*
X98788304Y-57645393D01*
X98776686Y-57642957D01*
X98776685Y-57642957D01*
X98743287Y-57647120D01*
X98737163Y-57647500D01*
X98732960Y-57647500D01*
X98712464Y-57650919D01*
X98710444Y-57651213D01*
X98660606Y-57657426D01*
X98653581Y-57659517D01*
X98646616Y-57661908D01*
X98602462Y-57685804D01*
X98600643Y-57686740D01*
X98555519Y-57708799D01*
X98549542Y-57713066D01*
X98543744Y-57717580D01*
X98509739Y-57754517D01*
X98508323Y-57755992D01*
X97615118Y-58649198D01*
X97599267Y-58662070D01*
X97593652Y-58665739D01*
X97534597Y-58681742D01*
X97477414Y-58659976D01*
X97443945Y-58608756D01*
X97440499Y-58582863D01*
X97440499Y-57176190D01*
X97459406Y-57117999D01*
X97469495Y-57106186D01*
X98738186Y-55837496D01*
X98792703Y-55809719D01*
X98808190Y-55808500D01*
X99006858Y-55808500D01*
X99065049Y-55827407D01*
X99094168Y-55860831D01*
X99094767Y-55861952D01*
X99094768Y-55861954D01*
X99154757Y-55974185D01*
X99192316Y-56044452D01*
X99273371Y-56143218D01*
X99323590Y-56204410D01*
X99323595Y-56204414D01*
X99483547Y-56335683D01*
X99483548Y-56335683D01*
X99483550Y-56335685D01*
X99666046Y-56433232D01*
X99783448Y-56468845D01*
X99864065Y-56493300D01*
X99864070Y-56493301D01*
X100069997Y-56513583D01*
X100070000Y-56513583D01*
X100070003Y-56513583D01*
X100275929Y-56493301D01*
X100275934Y-56493300D01*
X100296867Y-56486950D01*
X100473954Y-56433232D01*
X100656450Y-56335685D01*
X100816410Y-56204410D01*
X100947685Y-56044450D01*
X101045232Y-55861954D01*
X101105300Y-55663934D01*
X101105301Y-55663929D01*
X101125583Y-55458003D01*
X101125583Y-55457996D01*
X101105301Y-55252070D01*
X101105300Y-55252065D01*
X101080042Y-55168802D01*
X101045232Y-55054046D01*
X100947685Y-54871550D01*
X100816410Y-54711590D01*
X100816404Y-54711585D01*
X100656452Y-54580316D01*
X100473954Y-54482768D01*
X100275934Y-54422699D01*
X100275929Y-54422698D01*
X100070003Y-54402417D01*
X100069997Y-54402417D01*
X99864070Y-54422698D01*
X99864065Y-54422699D01*
X99666045Y-54482768D01*
X99483547Y-54580316D01*
X99323595Y-54711585D01*
X99323585Y-54711595D01*
X99192316Y-54871547D01*
X99134195Y-54980283D01*
X99099204Y-55045748D01*
X99094168Y-55055169D01*
X99050062Y-55097575D01*
X99006858Y-55107500D01*
X98668613Y-55107500D01*
X98648298Y-55105393D01*
X98636685Y-55102958D01*
X98603294Y-55107120D01*
X98597169Y-55107500D01*
X98592959Y-55107500D01*
X98572473Y-55110918D01*
X98570450Y-55111213D01*
X98520608Y-55117426D01*
X98513575Y-55119519D01*
X98506616Y-55121908D01*
X98462462Y-55145804D01*
X98460643Y-55146740D01*
X98415519Y-55168799D01*
X98409542Y-55173066D01*
X98403744Y-55177580D01*
X98369739Y-55214517D01*
X98368323Y-55215992D01*
X96875118Y-56709198D01*
X96859265Y-56722071D01*
X96849335Y-56728559D01*
X96849332Y-56728561D01*
X96828664Y-56755114D01*
X96824605Y-56759712D01*
X96821619Y-56762698D01*
X96809539Y-56779618D01*
X96808318Y-56781256D01*
X96777482Y-56820874D01*
X96773981Y-56827343D01*
X96770759Y-56833935D01*
X96756426Y-56882076D01*
X96755802Y-56884023D01*
X96739500Y-56931510D01*
X96738293Y-56938743D01*
X96737383Y-56946046D01*
X96739458Y-56996233D01*
X96739500Y-56998243D01*
X96739500Y-60553809D01*
X96720593Y-60612000D01*
X96710504Y-60623812D01*
X96233814Y-61100503D01*
X96179297Y-61128281D01*
X96163810Y-61129500D01*
X95691690Y-61129500D01*
X95633499Y-61110593D01*
X95603481Y-61075446D01*
X95564629Y-60999196D01*
X95548050Y-60966658D01*
X95458342Y-60876950D01*
X95345304Y-60819354D01*
X95345305Y-60819354D01*
X95251522Y-60804500D01*
X94788480Y-60804500D01*
X94784603Y-60804806D01*
X94784458Y-60802973D01*
X94730841Y-60794420D01*
X94705881Y-60776265D01*
X94632891Y-60703275D01*
X94614463Y-60673201D01*
X94613256Y-60673817D01*
X94609719Y-60666875D01*
X94609719Y-60666874D01*
X94548528Y-60546780D01*
X94453220Y-60451472D01*
X94453217Y-60451470D01*
X94333129Y-60390282D01*
X94333127Y-60390281D01*
X94200000Y-60369196D01*
X94199999Y-60369196D01*
X94084986Y-60387412D01*
X94024554Y-60377841D01*
X93981289Y-60334576D01*
X93970499Y-60289634D01*
X93970499Y-59850122D01*
X93989406Y-59791932D01*
X93999489Y-59780125D01*
X94009285Y-59770329D01*
X94063800Y-59742554D01*
X94094774Y-59742554D01*
X94210000Y-59760804D01*
X94343126Y-59739719D01*
X94463220Y-59678528D01*
X94558528Y-59583220D01*
X94619719Y-59463126D01*
X94640804Y-59330000D01*
X94619719Y-59196874D01*
X94614209Y-59186061D01*
X94558529Y-59076782D01*
X94558528Y-59076780D01*
X94463220Y-58981472D01*
X94463217Y-58981470D01*
X94343129Y-58920282D01*
X94343127Y-58920281D01*
X94210000Y-58899196D01*
X94209997Y-58899196D01*
X94184985Y-58903157D01*
X94124553Y-58893585D01*
X94081290Y-58850319D01*
X94070500Y-58805376D01*
X94070500Y-58396207D01*
X94089407Y-58338016D01*
X94138907Y-58302052D01*
X94184987Y-58298426D01*
X94200000Y-58300804D01*
X94333126Y-58279719D01*
X94453220Y-58218528D01*
X94548528Y-58123220D01*
X94609719Y-58003126D01*
X94630804Y-57870000D01*
X94609719Y-57736874D01*
X94548528Y-57616780D01*
X94453220Y-57521472D01*
X94453217Y-57521470D01*
X94333129Y-57460282D01*
X94333127Y-57460281D01*
X94200000Y-57439196D01*
X94184984Y-57441574D01*
X94124552Y-57432000D01*
X94081289Y-57388734D01*
X94070500Y-57343792D01*
X94070500Y-56816510D01*
X94066703Y-56792541D01*
X94054719Y-56716874D01*
X94054716Y-56716869D01*
X94054716Y-56716867D01*
X93993529Y-56596782D01*
X93993528Y-56596780D01*
X93898220Y-56501472D01*
X93834186Y-56468845D01*
X93824554Y-56463937D01*
X93781290Y-56420672D01*
X93770500Y-56375728D01*
X93770500Y-56364271D01*
X93789407Y-56306080D01*
X93824551Y-56276064D01*
X93898220Y-56238528D01*
X93993528Y-56143220D01*
X94054719Y-56023126D01*
X94070500Y-55923488D01*
X94070500Y-55356512D01*
X94054719Y-55256874D01*
X94054716Y-55256869D01*
X94054716Y-55256867D01*
X93993529Y-55136782D01*
X93993528Y-55136780D01*
X93898220Y-55041472D01*
X93898217Y-55041470D01*
X93778132Y-54980283D01*
X93778127Y-54980281D01*
X93778126Y-54980281D01*
X93744913Y-54975020D01*
X93678490Y-54964500D01*
X93678488Y-54964500D01*
X93161512Y-54964500D01*
X93161510Y-54964500D01*
X93061874Y-54980281D01*
X93061867Y-54980283D01*
X92941782Y-55041470D01*
X92941774Y-55041476D01*
X92937495Y-55045755D01*
X92882976Y-55073527D01*
X92822545Y-55063949D01*
X92797498Y-55045750D01*
X92713220Y-54961472D01*
X92713217Y-54961470D01*
X92593129Y-54900282D01*
X92593127Y-54900281D01*
X92460000Y-54879196D01*
X92326872Y-54900281D01*
X92326870Y-54900282D01*
X92206782Y-54961470D01*
X92111470Y-55056782D01*
X92050282Y-55176870D01*
X92050281Y-55176872D01*
X92029196Y-55309999D01*
X92029196Y-55310000D01*
X92050281Y-55443127D01*
X92050282Y-55443129D01*
X92057861Y-55458003D01*
X92111472Y-55563220D01*
X92206780Y-55658528D01*
X92206782Y-55658529D01*
X92326867Y-55719716D01*
X92326870Y-55719717D01*
X92326874Y-55719719D01*
X92351140Y-55723562D01*
X92405654Y-55751336D01*
X92509199Y-55854881D01*
X92522074Y-55870737D01*
X92528563Y-55880669D01*
X92555110Y-55901332D01*
X92559708Y-55905392D01*
X92562688Y-55908371D01*
X92562691Y-55908373D01*
X92562693Y-55908375D01*
X92579619Y-55920460D01*
X92581241Y-55921669D01*
X92589949Y-55928447D01*
X92620873Y-55952517D01*
X92627323Y-55956007D01*
X92633930Y-55959237D01*
X92633933Y-55959239D01*
X92633935Y-55959239D01*
X92633936Y-55959240D01*
X92682039Y-55973561D01*
X92683987Y-55974185D01*
X92738649Y-55992950D01*
X92787548Y-56029727D01*
X92794714Y-56041640D01*
X92846472Y-56143220D01*
X92941780Y-56238528D01*
X93015447Y-56276063D01*
X93058710Y-56319326D01*
X93069500Y-56364271D01*
X93069500Y-56375728D01*
X93050593Y-56433919D01*
X93015446Y-56463937D01*
X92941781Y-56501471D01*
X92846470Y-56596782D01*
X92785283Y-56716867D01*
X92785281Y-56716874D01*
X92769500Y-56816510D01*
X92769500Y-57383489D01*
X92777183Y-57432000D01*
X92782105Y-57463076D01*
X92785281Y-57483125D01*
X92785283Y-57483132D01*
X92846470Y-57603217D01*
X92846472Y-57603220D01*
X92941780Y-57698528D01*
X92972244Y-57714050D01*
X93026688Y-57741791D01*
X93069952Y-57785055D01*
X93079523Y-57845488D01*
X93051745Y-57900004D01*
X93026688Y-57918209D01*
X92941781Y-57961471D01*
X92846470Y-58056782D01*
X92785283Y-58176867D01*
X92785281Y-58176874D01*
X92769500Y-58276510D01*
X92769500Y-58843489D01*
X92785281Y-58943125D01*
X92785283Y-58943132D01*
X92843811Y-59057998D01*
X92846472Y-59063220D01*
X92941780Y-59158528D01*
X92971773Y-59173810D01*
X93017189Y-59196951D01*
X93060453Y-59240215D01*
X93070024Y-59300648D01*
X93042246Y-59355164D01*
X93017189Y-59373369D01*
X92931659Y-59416949D01*
X92841949Y-59506659D01*
X92784354Y-59619695D01*
X92769500Y-59713477D01*
X92769500Y-60326517D01*
X92776789Y-60372541D01*
X92767215Y-60432973D01*
X92723949Y-60476236D01*
X92663517Y-60485806D01*
X92634062Y-60476234D01*
X92583126Y-60450281D01*
X92583127Y-60450281D01*
X92450000Y-60429196D01*
X92316872Y-60450281D01*
X92316870Y-60450282D01*
X92196782Y-60511470D01*
X92101470Y-60606782D01*
X92040282Y-60726870D01*
X92040281Y-60726872D01*
X92019196Y-60859999D01*
X92019196Y-60860000D01*
X92040281Y-60993127D01*
X92040282Y-60993129D01*
X92091240Y-61093139D01*
X92101472Y-61113220D01*
X92196780Y-61208528D01*
X92196782Y-61208529D01*
X92316867Y-61269716D01*
X92316870Y-61269717D01*
X92316874Y-61269719D01*
X92341140Y-61273562D01*
X92395654Y-61301336D01*
X92740504Y-61646186D01*
X92768281Y-61700703D01*
X92769500Y-61716189D01*
X92769500Y-61786520D01*
X92769501Y-61786523D01*
X92784352Y-61880299D01*
X92784354Y-61880304D01*
X92841950Y-61993342D01*
X92931658Y-62083050D01*
X92965445Y-62100265D01*
X93008708Y-62143526D01*
X93019500Y-62188474D01*
X93019500Y-62231525D01*
X93000593Y-62289716D01*
X92965446Y-62319734D01*
X92931659Y-62336949D01*
X92841949Y-62426659D01*
X92784354Y-62539695D01*
X92769500Y-62633477D01*
X92769500Y-63246520D01*
X92769501Y-63246523D01*
X92784352Y-63340299D01*
X92784354Y-63340304D01*
X92841950Y-63453342D01*
X92931658Y-63543050D01*
X92991290Y-63573434D01*
X93018485Y-63587291D01*
X93061749Y-63630556D01*
X93071320Y-63690988D01*
X93043542Y-63745504D01*
X92989025Y-63773281D01*
X92973539Y-63774500D01*
X86212838Y-63774500D01*
X86154647Y-63755593D01*
X86118683Y-63706093D01*
X86118683Y-63644907D01*
X86154647Y-63595407D01*
X86167892Y-63587291D01*
X86200417Y-63570717D01*
X86283220Y-63528528D01*
X86378528Y-63433220D01*
X86439719Y-63313126D01*
X86455500Y-63213488D01*
X86455500Y-63074499D01*
X86474407Y-63016309D01*
X86523907Y-62980345D01*
X86554500Y-62975500D01*
X86722744Y-62975500D01*
X86780935Y-62994407D01*
X86792747Y-63004496D01*
X86824136Y-63035884D01*
X86836780Y-63048528D01*
X86956874Y-63109719D01*
X87090000Y-63130804D01*
X87223126Y-63109719D01*
X87343220Y-63048528D01*
X87438528Y-62953220D01*
X87499719Y-62833126D01*
X87520804Y-62700000D01*
X87499719Y-62566874D01*
X87489528Y-62546874D01*
X87438529Y-62446782D01*
X87438528Y-62446780D01*
X87343220Y-62351472D01*
X87343217Y-62351470D01*
X87223129Y-62290282D01*
X87223127Y-62290281D01*
X87090000Y-62269196D01*
X86956872Y-62290281D01*
X86956870Y-62290282D01*
X86836782Y-62351470D01*
X86836778Y-62351473D01*
X86792747Y-62395504D01*
X86738230Y-62423281D01*
X86722744Y-62424500D01*
X86417256Y-62424500D01*
X86359065Y-62405593D01*
X86347253Y-62395504D01*
X86283221Y-62331473D01*
X86283222Y-62331473D01*
X86281300Y-62330493D01*
X86198310Y-62288208D01*
X86155047Y-62244945D01*
X86145476Y-62184513D01*
X86173253Y-62129996D01*
X86198308Y-62111792D01*
X86283220Y-62068528D01*
X86378528Y-61973220D01*
X86439719Y-61853126D01*
X86448294Y-61798984D01*
X86449874Y-61789012D01*
X86477652Y-61734496D01*
X86532169Y-61706719D01*
X86547655Y-61705500D01*
X86702744Y-61705500D01*
X86760935Y-61724407D01*
X86772747Y-61734496D01*
X86798670Y-61760418D01*
X86816780Y-61778528D01*
X86816782Y-61778529D01*
X86935847Y-61839196D01*
X86936874Y-61839719D01*
X87070000Y-61860804D01*
X87203126Y-61839719D01*
X87323220Y-61778528D01*
X87418528Y-61683220D01*
X87479719Y-61563126D01*
X87500804Y-61430000D01*
X87479719Y-61296874D01*
X87464500Y-61267006D01*
X87418529Y-61176782D01*
X87418528Y-61176780D01*
X87323220Y-61081472D01*
X87323217Y-61081470D01*
X87203129Y-61020282D01*
X87203127Y-61020281D01*
X87070000Y-60999196D01*
X86936872Y-61020281D01*
X86936870Y-61020282D01*
X86816782Y-61081470D01*
X86816778Y-61081473D01*
X86772747Y-61125504D01*
X86718230Y-61153281D01*
X86702744Y-61154500D01*
X86533620Y-61154500D01*
X86475429Y-61135593D01*
X86444584Y-61093139D01*
X86443257Y-61093816D01*
X86378529Y-60966782D01*
X86378528Y-60966780D01*
X86283220Y-60871472D01*
X86198310Y-60828208D01*
X86155047Y-60784945D01*
X86145476Y-60724513D01*
X86173253Y-60669996D01*
X86198308Y-60651792D01*
X86283220Y-60608528D01*
X86378528Y-60513220D01*
X86419416Y-60432973D01*
X86428801Y-60414555D01*
X86472065Y-60371290D01*
X86517010Y-60360500D01*
X86543811Y-60360500D01*
X86602002Y-60379407D01*
X86613809Y-60389491D01*
X86648660Y-60424341D01*
X86676437Y-60478856D01*
X86680281Y-60503127D01*
X86680282Y-60503129D01*
X86733986Y-60608528D01*
X86741472Y-60623220D01*
X86836780Y-60718528D01*
X86956874Y-60779719D01*
X87064945Y-60796835D01*
X87089999Y-60800804D01*
X87089999Y-60800803D01*
X87090000Y-60800804D01*
X87223126Y-60779719D01*
X87343220Y-60718528D01*
X87438528Y-60623220D01*
X87499719Y-60503126D01*
X87520804Y-60370000D01*
X87499719Y-60236874D01*
X87438528Y-60116780D01*
X87343220Y-60021472D01*
X87343217Y-60021470D01*
X87223129Y-59960282D01*
X87223128Y-59960281D01*
X87198857Y-59956437D01*
X87144342Y-59928660D01*
X87010801Y-59795119D01*
X86997925Y-59779262D01*
X86991437Y-59769331D01*
X86964885Y-59748665D01*
X86960283Y-59744601D01*
X86957307Y-59741625D01*
X86940396Y-59729551D01*
X86938756Y-59728328D01*
X86899125Y-59697482D01*
X86892677Y-59693993D01*
X86886070Y-59690763D01*
X86886066Y-59690760D01*
X86844985Y-59678529D01*
X86837929Y-59676428D01*
X86835982Y-59675804D01*
X86788487Y-59659499D01*
X86781260Y-59658293D01*
X86773954Y-59657383D01*
X86773953Y-59657383D01*
X86771245Y-59657495D01*
X86723767Y-59659458D01*
X86721756Y-59659500D01*
X86517010Y-59659500D01*
X86458819Y-59640593D01*
X86428801Y-59605445D01*
X86378529Y-59506782D01*
X86378528Y-59506780D01*
X86283220Y-59411472D01*
X86237599Y-59388227D01*
X86209554Y-59373937D01*
X86166290Y-59330672D01*
X86155500Y-59285728D01*
X86155500Y-59274271D01*
X86174407Y-59216080D01*
X86209551Y-59186064D01*
X86283220Y-59148528D01*
X86378030Y-59053717D01*
X86432545Y-59025941D01*
X86492977Y-59035512D01*
X86518036Y-59053718D01*
X86649199Y-59184881D01*
X86662074Y-59200737D01*
X86668563Y-59210669D01*
X86695110Y-59231332D01*
X86699708Y-59235392D01*
X86702689Y-59238372D01*
X86702692Y-59238374D01*
X86702694Y-59238376D01*
X86710887Y-59244226D01*
X86719600Y-59250447D01*
X86721240Y-59251670D01*
X86747705Y-59272267D01*
X86760874Y-59282517D01*
X86760875Y-59282517D01*
X86760876Y-59282518D01*
X86767337Y-59286014D01*
X86773934Y-59289240D01*
X86822085Y-59303575D01*
X86823996Y-59304188D01*
X86844389Y-59311188D01*
X86871512Y-59320500D01*
X86871514Y-59320500D01*
X86878740Y-59321706D01*
X86893654Y-59323566D01*
X86926350Y-59333595D01*
X86946613Y-59343919D01*
X87016874Y-59379719D01*
X87131797Y-59397920D01*
X87149999Y-59400804D01*
X87149999Y-59400803D01*
X87150000Y-59400804D01*
X87283126Y-59379719D01*
X87403220Y-59318528D01*
X87498528Y-59223220D01*
X87559719Y-59103126D01*
X87580804Y-58970000D01*
X87559719Y-58836874D01*
X87498528Y-58716780D01*
X87403220Y-58621472D01*
X87403217Y-58621470D01*
X87283129Y-58560282D01*
X87283127Y-58560281D01*
X87150000Y-58539196D01*
X87149999Y-58539196D01*
X87065910Y-58552514D01*
X87005477Y-58542942D01*
X86980419Y-58524737D01*
X86790801Y-58335119D01*
X86777925Y-58319262D01*
X86771437Y-58309331D01*
X86744885Y-58288665D01*
X86740283Y-58284601D01*
X86737307Y-58281625D01*
X86720396Y-58269551D01*
X86718756Y-58268328D01*
X86679125Y-58237482D01*
X86672677Y-58233993D01*
X86666070Y-58230763D01*
X86666066Y-58230760D01*
X86624985Y-58218529D01*
X86617929Y-58216428D01*
X86615982Y-58215804D01*
X86568487Y-58199499D01*
X86561260Y-58198293D01*
X86553951Y-58197382D01*
X86520764Y-58198755D01*
X86461841Y-58182268D01*
X86428465Y-58144786D01*
X86383623Y-58056780D01*
X86378528Y-58046780D01*
X86283220Y-57951472D01*
X86281083Y-57950383D01*
X86207810Y-57913048D01*
X86164546Y-57869783D01*
X86154975Y-57809351D01*
X86182753Y-57754835D01*
X86207804Y-57736633D01*
X86293342Y-57693050D01*
X86383050Y-57603342D01*
X86409245Y-57551930D01*
X86452509Y-57508667D01*
X86512941Y-57499096D01*
X86516873Y-57499718D01*
X86516874Y-57499719D01*
X86650000Y-57520804D01*
X86783126Y-57499719D01*
X86903220Y-57438528D01*
X86998528Y-57343220D01*
X87059719Y-57223126D01*
X87080804Y-57090000D01*
X87059719Y-56956874D01*
X86998528Y-56836780D01*
X86903220Y-56741472D01*
X86903217Y-56741470D01*
X86783129Y-56680282D01*
X86783127Y-56680281D01*
X86650000Y-56659196D01*
X86512941Y-56680904D01*
X86452509Y-56671333D01*
X86409245Y-56628069D01*
X86383050Y-56576658D01*
X86293342Y-56486950D01*
X86207810Y-56443369D01*
X86164546Y-56400105D01*
X86154975Y-56339672D01*
X86182753Y-56285156D01*
X86207807Y-56266952D01*
X86283220Y-56228528D01*
X86378528Y-56133220D01*
X86439719Y-56013126D01*
X86455500Y-55913488D01*
X86455500Y-55346512D01*
X86439719Y-55246874D01*
X86439716Y-55246869D01*
X86439716Y-55246867D01*
X86378529Y-55126782D01*
X86378528Y-55126780D01*
X86283220Y-55031472D01*
X86283217Y-55031470D01*
X86163132Y-54970283D01*
X86163127Y-54970281D01*
X86163126Y-54970281D01*
X86107508Y-54961472D01*
X86063490Y-54954500D01*
X86063488Y-54954500D01*
X85546512Y-54954500D01*
X85546510Y-54954500D01*
X85446874Y-54970281D01*
X85446867Y-54970283D01*
X85326782Y-55031470D01*
X85231470Y-55126782D01*
X85170283Y-55246867D01*
X85170281Y-55246874D01*
X85154500Y-55346512D01*
X85154500Y-55913488D01*
X85167085Y-55992950D01*
X85170281Y-56013125D01*
X85170283Y-56013132D01*
X85186242Y-56044452D01*
X85231472Y-56133220D01*
X85326780Y-56228528D01*
X85446874Y-56289719D01*
X85446875Y-56289719D01*
X85452188Y-56292426D01*
X85495453Y-56335691D01*
X85505024Y-56396123D01*
X85477246Y-56450640D01*
X85452190Y-56468845D01*
X85416659Y-56486949D01*
X85326949Y-56576659D01*
X85269354Y-56689695D01*
X85254500Y-56783478D01*
X85254500Y-57264810D01*
X85235593Y-57323001D01*
X85186093Y-57358965D01*
X85124907Y-57358965D01*
X85085496Y-57334813D01*
X84834495Y-57083811D01*
X84806718Y-57029295D01*
X84805499Y-57013808D01*
X84805499Y-56783478D01*
X84805498Y-56783476D01*
X84790647Y-56689700D01*
X84790646Y-56689698D01*
X84790646Y-56689696D01*
X84733050Y-56576658D01*
X84643342Y-56486950D01*
X84530304Y-56429354D01*
X84530305Y-56429354D01*
X84436522Y-56414500D01*
X83973479Y-56414500D01*
X83973476Y-56414501D01*
X83879700Y-56429352D01*
X83879695Y-56429354D01*
X83766659Y-56486949D01*
X83676949Y-56576659D01*
X83621519Y-56685446D01*
X83578254Y-56728710D01*
X83533310Y-56739500D01*
X83366613Y-56739500D01*
X83346298Y-56737393D01*
X83334685Y-56734958D01*
X83301294Y-56739120D01*
X83295169Y-56739500D01*
X83290959Y-56739500D01*
X83270473Y-56742918D01*
X83268450Y-56743213D01*
X83218608Y-56749426D01*
X83211575Y-56751519D01*
X83204616Y-56753908D01*
X83160462Y-56777804D01*
X83158643Y-56778740D01*
X83113519Y-56800799D01*
X83107542Y-56805066D01*
X83101744Y-56809580D01*
X83067739Y-56846517D01*
X83066323Y-56847992D01*
X82795118Y-57119198D01*
X82779265Y-57132071D01*
X82769335Y-57138559D01*
X82769332Y-57138561D01*
X82748664Y-57165114D01*
X82744605Y-57169712D01*
X82741619Y-57172698D01*
X82729539Y-57189618D01*
X82728318Y-57191256D01*
X82697482Y-57230874D01*
X82693981Y-57237343D01*
X82690759Y-57243935D01*
X82676426Y-57292076D01*
X82675802Y-57294023D01*
X82659500Y-57341510D01*
X82658293Y-57348743D01*
X82657383Y-57356046D01*
X82659458Y-57406233D01*
X82659500Y-57408243D01*
X82659500Y-59173810D01*
X82640593Y-59232001D01*
X82630504Y-59243814D01*
X82293814Y-59580504D01*
X82239297Y-59608281D01*
X82223810Y-59609500D01*
X81930313Y-59609500D01*
X81872122Y-59590593D01*
X81847998Y-59565502D01*
X81814554Y-59515451D01*
X81814552Y-59515448D01*
X81801399Y-59506659D01*
X81748233Y-59471134D01*
X81748231Y-59471133D01*
X81748228Y-59471132D01*
X81748227Y-59471132D01*
X81689758Y-59459501D01*
X81689748Y-59459500D01*
X80550252Y-59459500D01*
X80550251Y-59459500D01*
X80550241Y-59459501D01*
X80491772Y-59471132D01*
X80491766Y-59471134D01*
X80425451Y-59515445D01*
X80425445Y-59515451D01*
X80381134Y-59581766D01*
X80381132Y-59581772D01*
X80369501Y-59640241D01*
X80369500Y-59640253D01*
X80369500Y-60279746D01*
X80369501Y-60279758D01*
X80381132Y-60338227D01*
X80381134Y-60338233D01*
X80417813Y-60393126D01*
X80425448Y-60404552D01*
X80491769Y-60448867D01*
X80536231Y-60457711D01*
X80550241Y-60460498D01*
X80550246Y-60460498D01*
X80550252Y-60460500D01*
X80550253Y-60460500D01*
X81689747Y-60460500D01*
X81689748Y-60460500D01*
X81748231Y-60448867D01*
X81814552Y-60404552D01*
X81847997Y-60354498D01*
X81896049Y-60316619D01*
X81930313Y-60310500D01*
X82363381Y-60310500D01*
X82383696Y-60312607D01*
X82385844Y-60313057D01*
X82395315Y-60315043D01*
X82428712Y-60310879D01*
X82434837Y-60310500D01*
X82439043Y-60310500D01*
X82450615Y-60308568D01*
X82459549Y-60307077D01*
X82461553Y-60306785D01*
X82511393Y-60300573D01*
X82511396Y-60300571D01*
X82518429Y-60298477D01*
X82525373Y-60296093D01*
X82525381Y-60296092D01*
X82569570Y-60272176D01*
X82571358Y-60271257D01*
X82616482Y-60249199D01*
X82616482Y-60249198D01*
X82616484Y-60249198D01*
X82616485Y-60249196D01*
X82622470Y-60244923D01*
X82628255Y-60240420D01*
X82628255Y-60240419D01*
X82628258Y-60240418D01*
X82662276Y-60203463D01*
X82663640Y-60202040D01*
X83224884Y-59640796D01*
X83240734Y-59627926D01*
X83250669Y-59621437D01*
X83271338Y-59594879D01*
X83275388Y-59590292D01*
X83278375Y-59587307D01*
X83290462Y-59570375D01*
X83291651Y-59568780D01*
X83322517Y-59529126D01*
X83322518Y-59529120D01*
X83326023Y-59522645D01*
X83329237Y-59516071D01*
X83329237Y-59516069D01*
X83329240Y-59516066D01*
X83343579Y-59467899D01*
X83344188Y-59466001D01*
X83345175Y-59463126D01*
X83360500Y-59418488D01*
X83360500Y-59418483D01*
X83361707Y-59411254D01*
X83362615Y-59403959D01*
X83362617Y-59403954D01*
X83360541Y-59353767D01*
X83360500Y-59351756D01*
X83360500Y-57586189D01*
X83379407Y-57527998D01*
X83389497Y-57516185D01*
X83436187Y-57469496D01*
X83490704Y-57441719D01*
X83506190Y-57440500D01*
X83533310Y-57440500D01*
X83591501Y-57459407D01*
X83621519Y-57494554D01*
X83635234Y-57521470D01*
X83676950Y-57603342D01*
X83766658Y-57693050D01*
X83879696Y-57750646D01*
X83973481Y-57765500D01*
X84436518Y-57765499D01*
X84462921Y-57761317D01*
X84523353Y-57770888D01*
X84548413Y-57789094D01*
X85125504Y-58366185D01*
X85153281Y-58420702D01*
X85154500Y-58436189D01*
X85154500Y-58833489D01*
X85170281Y-58933125D01*
X85170283Y-58933132D01*
X85222449Y-59035512D01*
X85231472Y-59053220D01*
X85326780Y-59148528D01*
X85400447Y-59186063D01*
X85443710Y-59229326D01*
X85454500Y-59274271D01*
X85454500Y-59285728D01*
X85435593Y-59343919D01*
X85400446Y-59373937D01*
X85326781Y-59411471D01*
X85231470Y-59506782D01*
X85170283Y-59626867D01*
X85170281Y-59626874D01*
X85154500Y-59726510D01*
X85154500Y-60293489D01*
X85159731Y-60326517D01*
X85169830Y-60390281D01*
X85170281Y-60393125D01*
X85170283Y-60393132D01*
X85226329Y-60503127D01*
X85231472Y-60513220D01*
X85326780Y-60608528D01*
X85355609Y-60623217D01*
X85411688Y-60651791D01*
X85454952Y-60695055D01*
X85464523Y-60755488D01*
X85436745Y-60810004D01*
X85411688Y-60828209D01*
X85326781Y-60871471D01*
X85231470Y-60966782D01*
X85170283Y-61086867D01*
X85170281Y-61086874D01*
X85154500Y-61186510D01*
X85154500Y-61656168D01*
X85135593Y-61714359D01*
X85086093Y-61750323D01*
X85040014Y-61753949D01*
X85010003Y-61749196D01*
X85009820Y-61749196D01*
X85009646Y-61749139D01*
X85002306Y-61747977D01*
X85002490Y-61746814D01*
X84951629Y-61730289D01*
X84939816Y-61720200D01*
X84934496Y-61714880D01*
X84906719Y-61660363D01*
X84905500Y-61644876D01*
X84905500Y-61186510D01*
X84895837Y-61125504D01*
X84889719Y-61086874D01*
X84889716Y-61086869D01*
X84889716Y-61086867D01*
X84828529Y-60966782D01*
X84828528Y-60966780D01*
X84733220Y-60871472D01*
X84733217Y-60871470D01*
X84613132Y-60810283D01*
X84613127Y-60810281D01*
X84613126Y-60810281D01*
X84566985Y-60802973D01*
X84513490Y-60794500D01*
X84513488Y-60794500D01*
X83996512Y-60794500D01*
X83996510Y-60794500D01*
X83896874Y-60810281D01*
X83896867Y-60810283D01*
X83776782Y-60871470D01*
X83681470Y-60966782D01*
X83620283Y-61086867D01*
X83620281Y-61086874D01*
X83604500Y-61186510D01*
X83604500Y-61753489D01*
X83605598Y-61760420D01*
X83618157Y-61839718D01*
X83620281Y-61853125D01*
X83620283Y-61853132D01*
X83681470Y-61973217D01*
X83681472Y-61973220D01*
X83776780Y-62068528D01*
X83839063Y-62100263D01*
X83861688Y-62111791D01*
X83904952Y-62155055D01*
X83914523Y-62215488D01*
X83886745Y-62270004D01*
X83861688Y-62288209D01*
X83776781Y-62331471D01*
X83681470Y-62426782D01*
X83620283Y-62546867D01*
X83620281Y-62546874D01*
X83604500Y-62646510D01*
X83604500Y-63213489D01*
X83605598Y-63220420D01*
X83616697Y-63290500D01*
X83620281Y-63313125D01*
X83620283Y-63313132D01*
X83681470Y-63433217D01*
X83681472Y-63433220D01*
X83776780Y-63528528D01*
X83841366Y-63561436D01*
X83892108Y-63587291D01*
X83935372Y-63630555D01*
X83944943Y-63690988D01*
X83917165Y-63745504D01*
X83862648Y-63773281D01*
X83847162Y-63774500D01*
X81221189Y-63774500D01*
X81162998Y-63755593D01*
X81151185Y-63745504D01*
X79299496Y-61893814D01*
X79271719Y-61839297D01*
X79270500Y-61823810D01*
X79270500Y-59609500D01*
X79289407Y-59551309D01*
X79338907Y-59515345D01*
X79369500Y-59510500D01*
X79489747Y-59510500D01*
X79489748Y-59510500D01*
X79548231Y-59498867D01*
X79614552Y-59454552D01*
X79658867Y-59388231D01*
X79670500Y-59329748D01*
X79670500Y-58690252D01*
X79658867Y-58631769D01*
X79614552Y-58565448D01*
X79606821Y-58560282D01*
X79548233Y-58521134D01*
X79548231Y-58521133D01*
X79548228Y-58521132D01*
X79548227Y-58521132D01*
X79489758Y-58509501D01*
X79489748Y-58509500D01*
X78350252Y-58509500D01*
X78350251Y-58509500D01*
X78350241Y-58509501D01*
X78291772Y-58521132D01*
X78291766Y-58521134D01*
X78225451Y-58565445D01*
X78225445Y-58565451D01*
X78181134Y-58631766D01*
X78181132Y-58631772D01*
X78169501Y-58690241D01*
X78169500Y-58690253D01*
X78169500Y-59329746D01*
X78169501Y-59329758D01*
X78181132Y-59388227D01*
X78181134Y-59388233D01*
X78201347Y-59418483D01*
X78225448Y-59454552D01*
X78291769Y-59498867D01*
X78336231Y-59507711D01*
X78350241Y-59510498D01*
X78350246Y-59510498D01*
X78350252Y-59510500D01*
X78470500Y-59510500D01*
X78528691Y-59529407D01*
X78564655Y-59578907D01*
X78569500Y-59609500D01*
X78569500Y-61963381D01*
X78567393Y-61983696D01*
X78564957Y-61995313D01*
X78569120Y-62028709D01*
X78569500Y-62034837D01*
X78569500Y-62039043D01*
X78572919Y-62059536D01*
X78573214Y-62061559D01*
X78579427Y-62111393D01*
X78581527Y-62118448D01*
X78583907Y-62125380D01*
X78607809Y-62169546D01*
X78608746Y-62171366D01*
X78630801Y-62216483D01*
X78635078Y-62222472D01*
X78639581Y-62228258D01*
X78676517Y-62262260D01*
X78677993Y-62263676D01*
X80704814Y-64290496D01*
X80732591Y-64345013D01*
X80723020Y-64405445D01*
X80679755Y-64448710D01*
X80634810Y-64459500D01*
X65239500Y-64459500D01*
X65181309Y-64440593D01*
X65145345Y-64391093D01*
X65140500Y-64360500D01*
X65140500Y-54179500D01*
X65159407Y-54121309D01*
X65208907Y-54085345D01*
X65239500Y-54080500D01*
X101370500Y-54080500D01*
X101428691Y-54099407D01*
G37*
%TD.AperFunction*%
%TD*%
M02*
