G04 EasyEDA Pro v1.9.28, 2023-01-14 19:19:00*
G04 Gerber Generator version 0.3*%TF.GenerationSoftware,KiCad,Pcbnew,7.0.5*%
%TF.CreationDate,2023-11-23T16:42:44+08:00*%
%TF.ProjectId,0.87OLED_DevBoard,302e3837-4f4c-4454-945f-446576426f61,rev?*%
%TF.SameCoordinates,Original*%
%TF.FileFunction,Copper,L1,Top*%
%TF.FilePolarity,Positive*%
%FSLAX46Y46*%
G04 Gerber Fmt 4.6, Leading zero omitted, Abs format (unit mm)*
G04 Created by KiCad (PCBNEW 7.0.5) date 2023-11-23 16:42:44*
%MOMM*%
%LPD*%
G01*
G04 APERTURE LIST*
%TA.AperFunction,ComponentPad*%
%ADD10R,1.700000X1.700000*%
%TD*%
%TA.AperFunction,ComponentPad*%
%ADD11O,1.700000X1.700000*%
%TD*%
%TA.AperFunction,SMDPad,CuDef*%
%ADD12R,4.000000X0.320000*%
%TD*%
%TA.AperFunction,ViaPad*%
%ADD13C,0.450000*%
%TD*%
%TA.AperFunction,Conductor*%
%ADD14C,0.300000*%
%TD*%
%TA.AperFunction,Conductor*%
%ADD15C,0.150000*%
%TD*%
G04 APERTURE END LIST*
D10*
%TO.P,J1,1,Pin_1*%
%TO.N,GND*%
X100070000Y-63078000D03*
D11*
%TO.P,J1,2,Pin_2*%
%TO.N,/VCC_IN*%
X100070000Y-60538000D03*
%TO.P,J1,3,Pin_3*%
%TO.N,/OLED_SCL*%
X100070000Y-57998000D03*
%TO.P,J1,4,Pin_4*%
%TO.N,/OLED_SDA*%
X100070000Y-55458000D03*
%TD*%
D12*
%TO.P,U1,1,c2p*%
%TO.N,Net-(U1-c2p)*%
X89940000Y-63320000D03*
%TO.P,U1,2,c2n*%
%TO.N,Net-(U1-c2n)*%
X89940000Y-62699000D03*
%TO.P,U1,3,c1p*%
%TO.N,Net-(U1-c1p)*%
X89940000Y-62078000D03*
%TO.P,U1,4,c1n*%
%TO.N,Net-(U1-c1n)*%
X89940000Y-61458000D03*
%TO.P,U1,5,VBAT*%
%TO.N,/VCC_OLED*%
X89940000Y-60837000D03*
%TO.P,U1,6,VBREF*%
%TO.N,unconnected-(U1-VBREF-Pad6)*%
X89940000Y-60216000D03*
%TO.P,U1,7,VSS*%
%TO.N,GND*%
X89940000Y-59595000D03*
%TO.P,U1,8,VDD*%
%TO.N,/VCC_OLED*%
X89940000Y-58975000D03*
%TO.P,U1,9,RES#*%
%TO.N,Net-(U1-RES#)*%
X89940000Y-58354000D03*
%TO.P,U1,10,SCL*%
%TO.N,/OLED_SCL*%
X89940000Y-57733000D03*
%TO.P,U1,11,SDA*%
%TO.N,/OLED_SDA*%
X89940000Y-57112000D03*
%TO.P,U1,12,IREF*%
%TO.N,Net-(U1-IREF)*%
X89940000Y-56492000D03*
%TO.P,U1,13,VCOMH*%
%TO.N,Net-(U1-VCOMH)*%
X89940000Y-55871000D03*
%TO.P,U1,14,VCC*%
%TO.N,Net-(U1-VCC)*%
X89940000Y-55250000D03*
%TD*%
D13*
%TO.N,/VCC_OLED*%
X92450000Y-60860000D03*
%TO.N,/OLED_SCL*%
X94270000Y-62270000D03*
%TO.N,/OLED_SDA*%
X94200000Y-60800000D03*
%TO.N,Net-(U1-IREF)*%
X94210000Y-59330000D03*
%TO.N,Net-(U1-VCOMH)*%
X94200000Y-57870000D03*
%TO.N,Net-(U1-VCC)*%
X92460000Y-55310000D03*
%TO.N,/VCC_OLED*%
X87150000Y-58970000D03*
X87090000Y-60370000D03*
%TO.N,Net-(U1-c2p)*%
X85030000Y-63550000D03*
%TO.N,Net-(U1-c2n)*%
X87090000Y-62700000D03*
%TO.N,Net-(U1-c1p)*%
X85010000Y-62180000D03*
%TO.N,Net-(U1-c1n)*%
X87070000Y-61430000D03*
%TO.N,Net-(U1-RES#)*%
X86650000Y-57090000D03*
%TD*%
D14*
%TO.N,/VCC_OLED*%
X92450000Y-60860000D02*
X89963000Y-60860000D01*
X89963000Y-60860000D02*
X89940000Y-60837000D01*
D15*
%TO.N,/OLED_SCL*%
X92960000Y-58550000D02*
X92960000Y-60960000D01*
X89940000Y-57733000D02*
X92143000Y-57733000D01*
X92143000Y-57733000D02*
X92960000Y-58550000D01*
X92960000Y-60960000D02*
X94270000Y-62270000D01*
%TO.N,/OLED_SDA*%
X93340000Y-59940000D02*
X94200000Y-60800000D01*
X92090000Y-57112000D02*
X93340000Y-58362000D01*
X93340000Y-58362000D02*
X93340000Y-59940000D01*
X89940000Y-57112000D02*
X92090000Y-57112000D01*
%TO.N,Net-(U1-IREF)*%
X93700000Y-58820000D02*
X94210000Y-59330000D01*
X92342000Y-56492000D02*
X93700000Y-57850000D01*
X93700000Y-57850000D02*
X93700000Y-58820000D01*
X89940000Y-56492000D02*
X92342000Y-56492000D01*
%TO.N,Net-(U1-VCOMH)*%
X94200000Y-57620000D02*
X94200000Y-57870000D01*
X92890000Y-56310000D02*
X94200000Y-57620000D01*
X89940000Y-55871000D02*
X92451000Y-55871000D01*
X92451000Y-55871000D02*
X92890000Y-56310000D01*
D14*
%TO.N,Net-(U1-VCC)*%
X92400000Y-55250000D02*
X92460000Y-55310000D01*
X89940000Y-55250000D02*
X92400000Y-55250000D01*
%TO.N,/VCC_OLED*%
X87090000Y-60370000D02*
X87557000Y-60837000D01*
X87557000Y-60837000D02*
X89940000Y-60837000D01*
X87155000Y-58975000D02*
X87150000Y-58970000D01*
X89940000Y-58975000D02*
X87155000Y-58975000D01*
D15*
%TO.N,Net-(U1-c2p)*%
X85030000Y-63550000D02*
X85260000Y-63320000D01*
X85260000Y-63320000D02*
X89940000Y-63320000D01*
%TO.N,Net-(U1-c2n)*%
X87091000Y-62699000D02*
X87090000Y-62700000D01*
X89940000Y-62699000D02*
X87091000Y-62699000D01*
%TO.N,Net-(U1-c1p)*%
X85112000Y-62078000D02*
X89940000Y-62078000D01*
X85010000Y-62180000D02*
X85112000Y-62078000D01*
%TO.N,Net-(U1-c1n)*%
X87098000Y-61458000D02*
X87070000Y-61430000D01*
X89940000Y-61458000D02*
X87098000Y-61458000D01*
%TO.N,Net-(U1-RES#)*%
X86680000Y-57090000D02*
X86650000Y-57090000D01*
X86960000Y-57370000D02*
X86680000Y-57090000D01*
X86970000Y-57380000D02*
X86960000Y-57370000D01*
X86970000Y-57920000D02*
X86970000Y-57380000D01*
X87404000Y-58354000D02*
X86970000Y-57920000D01*
X89940000Y-58354000D02*
X87404000Y-58354000D01*
%TD*%
%TA.AperFunction,Conductor*%
%TO.N,GND*%
G36*
X101428691Y-54099407D02*
G01*
X101464655Y-54148907D01*
X101469500Y-54179500D01*
X101469500Y-64360500D01*
X101450593Y-64418691D01*
X101401093Y-64454655D01*
X101370500Y-64459500D01*
X65239500Y-64459500D01*
X65181309Y-64440593D01*
X65145345Y-64391093D01*
X65140500Y-64360500D01*
X65140500Y-62180000D01*
X84579196Y-62180000D01*
X84600281Y-62313127D01*
X84600282Y-62313129D01*
X84656519Y-62423500D01*
X84661472Y-62433220D01*
X84756780Y-62528528D01*
X84876874Y-62589719D01*
X85010000Y-62610804D01*
X85143126Y-62589719D01*
X85263220Y-62528528D01*
X85358528Y-62433220D01*
X85371604Y-62407555D01*
X85414870Y-62364290D01*
X85459815Y-62353500D01*
X86627447Y-62353500D01*
X86685638Y-62372407D01*
X86721602Y-62421907D01*
X86721602Y-62483093D01*
X86715657Y-62497443D01*
X86680281Y-62566874D01*
X86659196Y-62700000D01*
X86680281Y-62833126D01*
X86703526Y-62878746D01*
X86714638Y-62900555D01*
X86724209Y-62960987D01*
X86696432Y-63015504D01*
X86641915Y-63043281D01*
X86626428Y-63044500D01*
X85296884Y-63044500D01*
X85277570Y-63042598D01*
X85260000Y-63039103D01*
X85259999Y-63039103D01*
X85259997Y-63039103D01*
X85240695Y-63042941D01*
X85240683Y-63042945D01*
X85152503Y-63060485D01*
X85120652Y-63081769D01*
X85089606Y-63102512D01*
X85034606Y-63119196D01*
X85029999Y-63119196D01*
X84896872Y-63140281D01*
X84896870Y-63140282D01*
X84776782Y-63201470D01*
X84681470Y-63296782D01*
X84620282Y-63416870D01*
X84620281Y-63416872D01*
X84599196Y-63549999D01*
X84599196Y-63550000D01*
X84620281Y-63683127D01*
X84620282Y-63683129D01*
X84620283Y-63683130D01*
X84681472Y-63803220D01*
X84776780Y-63898528D01*
X84896874Y-63959719D01*
X85004945Y-63976835D01*
X85029999Y-63980804D01*
X85029999Y-63980803D01*
X85030000Y-63980804D01*
X85163126Y-63959719D01*
X85283220Y-63898528D01*
X85378528Y-63803220D01*
X85439719Y-63683126D01*
X85440370Y-63679013D01*
X85468145Y-63624499D01*
X85522661Y-63596719D01*
X85538151Y-63595500D01*
X87725389Y-63595500D01*
X87783580Y-63614407D01*
X87795393Y-63624496D01*
X87795445Y-63624548D01*
X87795448Y-63624552D01*
X87861769Y-63668867D01*
X87906231Y-63677711D01*
X87920241Y-63680498D01*
X87920246Y-63680498D01*
X87920252Y-63680500D01*
X87920253Y-63680500D01*
X91959747Y-63680500D01*
X91959748Y-63680500D01*
X92018231Y-63668867D01*
X92084552Y-63624552D01*
X92128867Y-63558231D01*
X92140500Y-63499748D01*
X92140500Y-63140252D01*
X92128867Y-63081769D01*
X92117327Y-63064499D01*
X92100720Y-63005612D01*
X92117328Y-62954499D01*
X92128867Y-62937231D01*
X92140500Y-62878748D01*
X92140500Y-62519252D01*
X92128867Y-62460769D01*
X92117327Y-62443499D01*
X92100720Y-62384612D01*
X92117328Y-62333499D01*
X92128867Y-62316231D01*
X92140500Y-62257748D01*
X92140500Y-61898252D01*
X92128867Y-61839769D01*
X92117663Y-61823002D01*
X92101054Y-61764115D01*
X92117664Y-61712997D01*
X92128867Y-61696231D01*
X92140500Y-61637748D01*
X92140500Y-61341404D01*
X92159407Y-61283214D01*
X92208907Y-61247250D01*
X92270093Y-61247250D01*
X92284444Y-61253195D01*
X92316874Y-61269719D01*
X92450000Y-61290804D01*
X92583126Y-61269719D01*
X92703220Y-61208528D01*
X92703220Y-61208527D01*
X92710163Y-61204990D01*
X92710969Y-61206573D01*
X92759998Y-61190636D01*
X92818192Y-61209535D01*
X92830016Y-61219632D01*
X93810200Y-62199816D01*
X93837977Y-62254333D01*
X93839196Y-62269820D01*
X93839196Y-62270001D01*
X93860281Y-62403127D01*
X93860282Y-62403129D01*
X93921470Y-62523217D01*
X93921472Y-62523220D01*
X94016780Y-62618528D01*
X94136874Y-62679719D01*
X94270000Y-62700804D01*
X94403126Y-62679719D01*
X94523220Y-62618528D01*
X94618528Y-62523220D01*
X94679719Y-62403126D01*
X94700804Y-62270000D01*
X94700775Y-62269820D01*
X94686549Y-62179999D01*
X94679719Y-62136874D01*
X94618528Y-62016780D01*
X94523220Y-61921472D01*
X94523217Y-61921470D01*
X94403129Y-61860282D01*
X94403127Y-61860281D01*
X94270001Y-61839196D01*
X94269820Y-61839196D01*
X94269647Y-61839139D01*
X94262305Y-61837977D01*
X94262489Y-61836814D01*
X94211629Y-61820289D01*
X94199816Y-61810200D01*
X93264496Y-60874879D01*
X93236719Y-60820362D01*
X93235500Y-60804875D01*
X93235500Y-60464123D01*
X93254407Y-60405932D01*
X93303907Y-60369968D01*
X93365093Y-60369968D01*
X93404504Y-60394120D01*
X93740200Y-60729817D01*
X93767977Y-60784333D01*
X93769196Y-60799820D01*
X93769196Y-60800001D01*
X93790281Y-60933127D01*
X93790282Y-60933129D01*
X93834689Y-61020282D01*
X93851472Y-61053220D01*
X93946780Y-61148528D01*
X93986811Y-61168925D01*
X94064536Y-61208528D01*
X94066874Y-61209719D01*
X94200000Y-61230804D01*
X94333126Y-61209719D01*
X94453220Y-61148528D01*
X94548528Y-61053220D01*
X94609719Y-60933126D01*
X94630804Y-60800000D01*
X94630775Y-60799820D01*
X94617900Y-60718528D01*
X94609719Y-60666874D01*
X94548528Y-60546780D01*
X94539751Y-60538003D01*
X99014417Y-60538003D01*
X99034698Y-60743929D01*
X99034699Y-60743934D01*
X99094768Y-60941954D01*
X99192316Y-61124452D01*
X99262142Y-61209535D01*
X99323590Y-61284410D01*
X99323595Y-61284414D01*
X99483547Y-61415683D01*
X99483548Y-61415683D01*
X99483550Y-61415685D01*
X99666046Y-61513232D01*
X99803997Y-61555078D01*
X99864065Y-61573300D01*
X99864070Y-61573301D01*
X100069997Y-61593583D01*
X100070000Y-61593583D01*
X100070003Y-61593583D01*
X100275929Y-61573301D01*
X100275934Y-61573300D01*
X100275933Y-61573299D01*
X100473954Y-61513232D01*
X100656450Y-61415685D01*
X100816410Y-61284410D01*
X100947685Y-61124450D01*
X101045232Y-60941954D01*
X101105300Y-60743934D01*
X101105301Y-60743929D01*
X101125583Y-60538003D01*
X101125583Y-60537996D01*
X101105301Y-60332070D01*
X101105300Y-60332065D01*
X101076424Y-60236873D01*
X101045232Y-60134046D01*
X100947685Y-59951550D01*
X100937546Y-59939196D01*
X100816414Y-59791595D01*
X100816410Y-59791590D01*
X100753205Y-59739719D01*
X100656452Y-59660316D01*
X100473954Y-59562768D01*
X100275934Y-59502699D01*
X100275929Y-59502698D01*
X100070003Y-59482417D01*
X100069997Y-59482417D01*
X99864070Y-59502698D01*
X99864065Y-59502699D01*
X99666045Y-59562768D01*
X99483547Y-59660316D01*
X99323595Y-59791585D01*
X99323585Y-59791595D01*
X99192316Y-59951547D01*
X99094768Y-60134045D01*
X99034699Y-60332065D01*
X99034698Y-60332070D01*
X99014417Y-60537996D01*
X99014417Y-60538003D01*
X94539751Y-60538003D01*
X94453220Y-60451472D01*
X94453217Y-60451470D01*
X94333129Y-60390282D01*
X94333127Y-60390281D01*
X94200001Y-60369196D01*
X94199820Y-60369196D01*
X94199647Y-60369139D01*
X94192305Y-60367977D01*
X94192489Y-60366814D01*
X94141629Y-60350289D01*
X94129816Y-60340200D01*
X93644496Y-59854880D01*
X93616719Y-59800363D01*
X93615500Y-59784876D01*
X93615500Y-59512837D01*
X93634407Y-59454646D01*
X93683907Y-59418682D01*
X93745093Y-59418682D01*
X93794593Y-59454646D01*
X93802706Y-59467886D01*
X93861472Y-59583220D01*
X93956780Y-59678528D01*
X94076874Y-59739719D01*
X94184945Y-59756835D01*
X94209999Y-59760804D01*
X94209999Y-59760803D01*
X94210000Y-59760804D01*
X94343126Y-59739719D01*
X94463220Y-59678528D01*
X94558528Y-59583220D01*
X94619719Y-59463126D01*
X94640804Y-59330000D01*
X94619719Y-59196874D01*
X94558528Y-59076780D01*
X94463220Y-58981472D01*
X94463217Y-58981470D01*
X94343129Y-58920282D01*
X94343127Y-58920281D01*
X94210001Y-58899196D01*
X94209820Y-58899196D01*
X94209647Y-58899139D01*
X94202305Y-58897977D01*
X94202489Y-58896814D01*
X94151629Y-58880289D01*
X94139816Y-58870200D01*
X94004496Y-58734880D01*
X93976719Y-58680363D01*
X93975500Y-58664876D01*
X93975500Y-58381160D01*
X93994407Y-58322969D01*
X94043907Y-58287005D01*
X94089984Y-58283379D01*
X94200000Y-58300804D01*
X94333126Y-58279719D01*
X94453220Y-58218528D01*
X94548528Y-58123220D01*
X94609719Y-58003126D01*
X94610530Y-57998003D01*
X99014417Y-57998003D01*
X99034698Y-58203929D01*
X99034699Y-58203934D01*
X99094768Y-58401954D01*
X99192316Y-58584452D01*
X99262891Y-58670448D01*
X99323590Y-58744410D01*
X99323595Y-58744414D01*
X99483547Y-58875683D01*
X99483548Y-58875683D01*
X99483550Y-58875685D01*
X99666046Y-58973232D01*
X99803997Y-59015078D01*
X99864065Y-59033300D01*
X99864070Y-59033301D01*
X100069997Y-59053583D01*
X100070000Y-59053583D01*
X100070003Y-59053583D01*
X100275929Y-59033301D01*
X100275934Y-59033300D01*
X100275933Y-59033299D01*
X100473954Y-58973232D01*
X100656450Y-58875685D01*
X100816410Y-58744410D01*
X100947685Y-58584450D01*
X101045232Y-58401954D01*
X101105300Y-58203934D01*
X101105301Y-58203929D01*
X101125583Y-57998003D01*
X101125583Y-57997996D01*
X101105301Y-57792070D01*
X101105300Y-57792065D01*
X101087078Y-57731997D01*
X101045232Y-57594046D01*
X100947685Y-57411550D01*
X100947583Y-57411426D01*
X100816414Y-57251595D01*
X100816410Y-57251590D01*
X100781728Y-57223127D01*
X100656452Y-57120316D01*
X100473954Y-57022768D01*
X100275934Y-56962699D01*
X100275929Y-56962698D01*
X100070003Y-56942417D01*
X100069997Y-56942417D01*
X99864070Y-56962698D01*
X99864065Y-56962699D01*
X99666045Y-57022768D01*
X99483547Y-57120316D01*
X99323595Y-57251585D01*
X99323585Y-57251595D01*
X99192316Y-57411547D01*
X99094768Y-57594045D01*
X99034699Y-57792065D01*
X99034698Y-57792070D01*
X99014417Y-57997996D01*
X99014417Y-57998003D01*
X94610530Y-57998003D01*
X94630804Y-57870000D01*
X94609719Y-57736874D01*
X94548528Y-57616780D01*
X94484226Y-57552478D01*
X94462767Y-57520358D01*
X94459515Y-57512505D01*
X94422761Y-57457499D01*
X94422761Y-57457498D01*
X94411292Y-57440334D01*
X94411292Y-57440333D01*
X94411288Y-57440329D01*
X94398627Y-57421380D01*
X94398626Y-57421379D01*
X94398624Y-57421376D01*
X94391404Y-57416552D01*
X94383733Y-57411426D01*
X94368731Y-57399115D01*
X92740685Y-55771069D01*
X92712908Y-55716552D01*
X92722479Y-55656120D01*
X92740683Y-55631064D01*
X92808528Y-55563220D01*
X92862139Y-55458003D01*
X99014417Y-55458003D01*
X99034698Y-55663929D01*
X99034699Y-55663934D01*
X99094768Y-55861954D01*
X99192316Y-56044452D01*
X99307977Y-56185385D01*
X99323590Y-56204410D01*
X99338322Y-56216500D01*
X99483547Y-56335683D01*
X99483548Y-56335683D01*
X99483550Y-56335685D01*
X99666046Y-56433232D01*
X99803997Y-56475078D01*
X99864065Y-56493300D01*
X99864070Y-56493301D01*
X100069997Y-56513583D01*
X100070000Y-56513583D01*
X100070003Y-56513583D01*
X100275929Y-56493301D01*
X100275934Y-56493300D01*
X100275933Y-56493299D01*
X100473954Y-56433232D01*
X100656450Y-56335685D01*
X100816410Y-56204410D01*
X100947685Y-56044450D01*
X101045232Y-55861954D01*
X101105300Y-55663934D01*
X101105301Y-55663929D01*
X101125583Y-55458003D01*
X101125583Y-55457996D01*
X101105301Y-55252070D01*
X101105300Y-55252065D01*
X101050148Y-55070253D01*
X101045232Y-55054046D01*
X100947685Y-54871550D01*
X100816410Y-54711590D01*
X100816404Y-54711585D01*
X100656452Y-54580316D01*
X100473954Y-54482768D01*
X100275934Y-54422699D01*
X100275929Y-54422698D01*
X100070003Y-54402417D01*
X100069997Y-54402417D01*
X99864070Y-54422698D01*
X99864065Y-54422699D01*
X99666045Y-54482768D01*
X99483547Y-54580316D01*
X99323595Y-54711585D01*
X99323585Y-54711595D01*
X99192316Y-54871547D01*
X99094768Y-55054045D01*
X99034699Y-55252065D01*
X99034698Y-55252070D01*
X99014417Y-55457996D01*
X99014417Y-55458003D01*
X92862139Y-55458003D01*
X92869719Y-55443126D01*
X92890804Y-55310000D01*
X92869719Y-55176874D01*
X92808528Y-55056780D01*
X92713220Y-54961472D01*
X92713217Y-54961470D01*
X92593129Y-54900282D01*
X92593127Y-54900281D01*
X92460000Y-54879196D01*
X92339501Y-54898281D01*
X92324014Y-54899500D01*
X92019773Y-54899500D01*
X92000459Y-54897598D01*
X91959750Y-54889500D01*
X91959748Y-54889500D01*
X87920252Y-54889500D01*
X87920251Y-54889500D01*
X87920241Y-54889501D01*
X87861772Y-54901132D01*
X87861766Y-54901134D01*
X87795451Y-54945445D01*
X87795445Y-54945451D01*
X87751134Y-55011766D01*
X87751132Y-55011772D01*
X87739501Y-55070241D01*
X87739500Y-55070253D01*
X87739500Y-55429746D01*
X87739501Y-55429758D01*
X87751132Y-55488227D01*
X87751134Y-55488233D01*
X87762671Y-55505499D01*
X87779279Y-55564388D01*
X87762671Y-55615501D01*
X87751134Y-55632766D01*
X87751132Y-55632772D01*
X87739501Y-55691241D01*
X87739500Y-55691253D01*
X87739500Y-56050746D01*
X87739501Y-56050758D01*
X87751132Y-56109227D01*
X87751134Y-56109233D01*
X87762670Y-56126497D01*
X87779279Y-56185385D01*
X87762672Y-56236498D01*
X87751135Y-56253764D01*
X87751132Y-56253772D01*
X87739501Y-56312241D01*
X87739500Y-56312253D01*
X87739500Y-56671746D01*
X87739501Y-56671758D01*
X87751132Y-56730227D01*
X87751133Y-56730231D01*
X87751134Y-56730232D01*
X87762337Y-56746999D01*
X87778945Y-56805887D01*
X87762337Y-56857001D01*
X87751134Y-56873767D01*
X87751132Y-56873772D01*
X87739501Y-56932241D01*
X87739500Y-56932253D01*
X87739500Y-57291746D01*
X87739501Y-57291758D01*
X87751132Y-57350227D01*
X87751134Y-57350233D01*
X87762670Y-57367497D01*
X87779279Y-57426385D01*
X87762672Y-57477498D01*
X87751135Y-57494764D01*
X87751132Y-57494772D01*
X87739501Y-57553241D01*
X87739500Y-57553253D01*
X87739500Y-57912755D01*
X87748936Y-57960184D01*
X87741746Y-58020945D01*
X87700214Y-58065876D01*
X87651839Y-58078500D01*
X87559124Y-58078500D01*
X87500933Y-58059593D01*
X87489120Y-58049504D01*
X87274495Y-57834879D01*
X87246718Y-57780362D01*
X87245500Y-57764887D01*
X87245500Y-57416882D01*
X87247402Y-57397569D01*
X87250897Y-57380000D01*
X87234487Y-57297500D01*
X87233342Y-57291746D01*
X87229515Y-57272507D01*
X87229514Y-57272503D01*
X87168625Y-57181378D01*
X87168624Y-57181376D01*
X87153733Y-57171426D01*
X87138731Y-57159115D01*
X87105654Y-57126038D01*
X87077877Y-57071521D01*
X87059719Y-56956874D01*
X86998528Y-56836780D01*
X86903220Y-56741472D01*
X86903217Y-56741470D01*
X86783129Y-56680282D01*
X86783127Y-56680281D01*
X86650000Y-56659196D01*
X86516872Y-56680281D01*
X86516870Y-56680282D01*
X86396782Y-56741470D01*
X86301470Y-56836782D01*
X86240282Y-56956870D01*
X86240281Y-56956872D01*
X86219196Y-57089999D01*
X86219196Y-57090000D01*
X86240281Y-57223127D01*
X86240282Y-57223129D01*
X86278176Y-57297500D01*
X86301472Y-57343220D01*
X86396780Y-57438528D01*
X86516874Y-57499719D01*
X86597602Y-57512505D01*
X86610987Y-57514625D01*
X86665504Y-57542402D01*
X86693281Y-57596919D01*
X86694500Y-57612406D01*
X86694500Y-57883115D01*
X86692598Y-57902427D01*
X86689103Y-57919999D01*
X86689103Y-57920002D01*
X86693311Y-57941162D01*
X86693316Y-57941182D01*
X86694500Y-57947132D01*
X86694500Y-57947133D01*
X86710485Y-58027495D01*
X86710486Y-58027497D01*
X86710487Y-58027498D01*
X86717203Y-58037549D01*
X86717204Y-58037552D01*
X86717205Y-58037552D01*
X86755246Y-58094485D01*
X86771376Y-58118624D01*
X86786266Y-58128573D01*
X86801269Y-58140885D01*
X87056452Y-58396068D01*
X87084229Y-58450585D01*
X87074658Y-58511017D01*
X87031393Y-58554282D01*
X87017042Y-58560226D01*
X87016871Y-58560281D01*
X86896782Y-58621470D01*
X86801470Y-58716782D01*
X86740282Y-58836870D01*
X86740281Y-58836872D01*
X86719196Y-58969999D01*
X86719196Y-58970000D01*
X86740281Y-59103127D01*
X86740282Y-59103129D01*
X86788046Y-59196870D01*
X86801472Y-59223220D01*
X86896780Y-59318528D01*
X87016874Y-59379719D01*
X87124945Y-59396835D01*
X87149999Y-59400804D01*
X87149999Y-59400803D01*
X87150000Y-59400804D01*
X87283126Y-59379719D01*
X87368360Y-59336289D01*
X87413305Y-59325500D01*
X87860227Y-59325500D01*
X87879540Y-59327401D01*
X87920252Y-59335500D01*
X87920253Y-59335500D01*
X91959747Y-59335500D01*
X91959748Y-59335500D01*
X92018231Y-59323867D01*
X92084552Y-59279552D01*
X92128867Y-59213231D01*
X92140500Y-59154748D01*
X92140500Y-58795252D01*
X92128867Y-58736769D01*
X92117328Y-58719500D01*
X92100720Y-58660615D01*
X92117328Y-58609500D01*
X92128867Y-58592231D01*
X92140500Y-58533748D01*
X92140500Y-58359120D01*
X92159406Y-58300933D01*
X92208906Y-58264969D01*
X92270091Y-58264968D01*
X92309503Y-58289119D01*
X92655504Y-58635120D01*
X92683281Y-58689637D01*
X92684500Y-58705124D01*
X92684500Y-60350423D01*
X92665593Y-60408614D01*
X92616093Y-60444578D01*
X92570013Y-60448204D01*
X92450001Y-60429196D01*
X92450000Y-60429196D01*
X92316874Y-60450281D01*
X92316869Y-60450282D01*
X92284444Y-60466804D01*
X92224012Y-60476375D01*
X92169496Y-60448597D01*
X92141719Y-60394080D01*
X92140500Y-60378594D01*
X92140500Y-60036253D01*
X92140498Y-60036241D01*
X92137560Y-60021470D01*
X92128867Y-59977769D01*
X92084552Y-59911448D01*
X92084548Y-59911445D01*
X92018233Y-59867134D01*
X92018231Y-59867133D01*
X92018228Y-59867132D01*
X92018227Y-59867132D01*
X91959758Y-59855501D01*
X91959748Y-59855500D01*
X87920252Y-59855500D01*
X87920251Y-59855500D01*
X87920241Y-59855501D01*
X87861772Y-59867132D01*
X87861766Y-59867134D01*
X87795451Y-59911445D01*
X87795445Y-59911451D01*
X87751134Y-59977766D01*
X87751132Y-59977772D01*
X87739501Y-60036241D01*
X87739500Y-60036253D01*
X87739500Y-60284810D01*
X87720593Y-60343001D01*
X87671093Y-60378965D01*
X87609907Y-60378965D01*
X87570497Y-60354814D01*
X87531340Y-60315658D01*
X87503562Y-60261142D01*
X87499719Y-60236874D01*
X87499719Y-60236873D01*
X87499718Y-60236870D01*
X87438529Y-60116782D01*
X87438528Y-60116780D01*
X87343220Y-60021472D01*
X87343217Y-60021470D01*
X87223129Y-59960282D01*
X87223127Y-59960281D01*
X87090000Y-59939196D01*
X86956872Y-59960281D01*
X86956870Y-59960282D01*
X86836782Y-60021470D01*
X86741470Y-60116782D01*
X86680282Y-60236870D01*
X86680281Y-60236872D01*
X86659196Y-60369999D01*
X86659196Y-60370000D01*
X86680281Y-60503127D01*
X86680282Y-60503129D01*
X86741470Y-60623217D01*
X86741472Y-60623220D01*
X86836780Y-60718528D01*
X86836782Y-60718529D01*
X86956870Y-60779718D01*
X86956873Y-60779719D01*
X86962104Y-60780547D01*
X86981138Y-60783561D01*
X87035655Y-60811337D01*
X87035658Y-60811339D01*
X87065135Y-60840816D01*
X87092912Y-60895333D01*
X87083341Y-60955765D01*
X87040076Y-60999030D01*
X87010618Y-61008601D01*
X86936872Y-61020281D01*
X86936870Y-61020282D01*
X86816782Y-61081470D01*
X86721470Y-61176782D01*
X86660282Y-61296870D01*
X86660281Y-61296872D01*
X86641463Y-61415685D01*
X86639196Y-61430000D01*
X86660281Y-61563126D01*
X86675800Y-61593583D01*
X86708905Y-61658555D01*
X86718476Y-61718987D01*
X86690699Y-61773503D01*
X86636182Y-61801281D01*
X86620695Y-61802500D01*
X85230127Y-61802500D01*
X85185182Y-61791709D01*
X85143129Y-61770282D01*
X85143127Y-61770281D01*
X85010000Y-61749196D01*
X84876872Y-61770281D01*
X84876870Y-61770282D01*
X84756782Y-61831470D01*
X84661470Y-61926782D01*
X84600282Y-62046870D01*
X84600281Y-62046872D01*
X84579196Y-62179999D01*
X84579196Y-62180000D01*
X65140500Y-62180000D01*
X65140500Y-54179500D01*
X65159407Y-54121309D01*
X65208907Y-54085345D01*
X65239500Y-54080500D01*
X101370500Y-54080500D01*
X101428691Y-54099407D01*
G37*
%TD.AperFunction*%
%TD*%
M02*
